<svg width="213" height="56" viewBox="0 0 213 56" fill="none" xmlns="http://www.w3.org/2000/svg">
<g clip-path="url(#clip0_2001_4171)">
<path fill-rule="evenodd" clip-rule="evenodd" d="M19.7137 7.78559C12.8483 7.78559 7.28274 13.338 7.28274 20.1873V36.0447C7.28274 42.894 12.8483 48.4464 19.7137 48.4464H35.6086C42.474 48.4464 48.0395 42.894 48.0395 36.0447V20.1873C48.0395 13.338 42.474 7.78559 35.6086 7.78559H19.7137ZM11.3693 0.61792C5.14604 0.61792 0.0981445 5.65392 0.0981445 11.8625V44.3733C0.0981445 50.5819 5.14604 55.6179 11.3693 55.6179H43.9569C50.1801 55.6179 55.228 50.5819 55.228 44.3733V0.61792H11.3693Z" fill="#D8F912"/>
<path d="M164.787 9.78914C165.46 10.3599 166.363 10.6472 167.496 10.6472C168.628 10.6472 169.547 10.3599 170.212 9.78914C170.886 9.21448 171.22 8.46122 171.22 7.53711H169.068C169.064 7.92151 168.94 8.2632 168.694 8.55829C168.457 8.85338 168.056 9.00093 167.496 9.00093C166.935 9.00093 166.519 8.85338 166.281 8.55829C166.048 8.25543 165.931 7.91762 165.931 7.53711H163.794C163.791 8.46122 164.121 9.21448 164.787 9.78914Z" fill="#1D1D1B"/>
<path d="M73.2165 14.0798H77.9997V23.9033H80.7747V11.7229H70.4648V23.9033H73.2165V14.0798Z" fill="#1D1D1B"/>
<path d="M113.709 23.7672C114.168 24.0001 114.752 24.1166 115.448 24.1166C116.406 24.1166 117.266 23.872 118.025 23.3789C118.784 22.8858 119.383 22.1752 119.819 21.2395C120.259 20.3037 120.477 19.166 120.477 17.8304C120.477 16.4947 120.251 15.3337 119.8 14.4057C119.356 13.47 118.749 12.7633 117.986 12.2896C117.227 11.8081 116.379 11.5674 115.437 11.5674C114.721 11.5674 114.133 11.6877 113.674 11.9324C113.214 12.1692 112.849 12.4565 112.576 12.7982C112.308 13.1322 112.097 13.4467 111.949 13.7418H111.782V11.7266H108.953V28.4731H111.829V21.9888H111.949C112.101 22.2839 112.319 22.5984 112.592 22.9324C112.872 23.2585 113.242 23.542 113.705 23.7711L113.709 23.7672ZM111.778 17.8109C111.778 17.0227 111.887 16.3394 112.105 15.7569C112.327 15.1745 112.654 14.7241 113.082 14.4018C113.51 14.0796 114.032 13.9165 114.647 13.9165C115.262 13.9165 115.822 14.0834 116.25 14.4174C116.678 14.7513 117.001 15.2095 117.219 15.7958C117.437 16.3821 117.546 17.0538 117.546 17.8109C117.546 18.5681 117.433 19.2515 117.211 19.8494C116.993 20.4396 116.67 20.9094 116.242 21.2511C115.814 21.5889 115.281 21.7598 114.647 21.7598C114.012 21.7598 113.518 21.5967 113.09 21.2666C112.666 20.9327 112.339 20.4707 112.113 19.8805C111.891 19.2903 111.778 18.5992 111.778 17.8109Z" fill="#1D1D1B"/>
<path d="M99.9308 23.9033H102.714V14.0798H106.664V11.7229H95.9805V14.0798H99.9308V23.9033Z" fill="#1D1D1B"/>
<path d="M92.8981 13.0389C92.3843 12.5381 91.7889 12.1653 91.1194 11.9285C90.45 11.6838 89.7417 11.5635 88.9905 11.5635C87.8268 11.5635 86.811 11.8314 85.947 12.3633C85.083 12.8914 84.4097 13.633 83.9271 14.5843C83.4483 15.5317 83.2109 16.6305 83.2109 17.8808C83.2109 19.1311 83.4483 20.261 83.9271 21.2045C84.4058 22.1403 85.083 22.8625 85.9704 23.3789C86.8616 23.8875 87.9163 24.1399 89.1423 24.1399C90.092 24.1399 90.9326 23.9962 91.6682 23.7128C92.4038 23.4216 93.0071 23.0139 93.4819 22.4936C93.9606 21.9655 94.2836 21.3482 94.451 20.6376L91.7655 20.3347C91.6371 20.6764 91.4503 20.9676 91.2012 21.2006C90.9521 21.4336 90.6563 21.6083 90.3177 21.7326C89.9791 21.849 89.6016 21.9073 89.1812 21.9073C88.5546 21.9073 88.0097 21.7753 87.5427 21.5112C87.0757 21.2433 86.7137 20.855 86.453 20.3542C86.2039 19.8649 86.0754 19.2786 86.0676 18.603H94.5677V17.7216C94.5677 16.6538 94.4198 15.7336 94.124 14.9609C93.8283 14.1844 93.4196 13.5437 92.902 13.0428L92.8981 13.0389ZM86.0754 16.6616C86.1027 16.184 86.2194 15.7414 86.4374 15.3376C86.6865 14.8794 87.0329 14.5066 87.4804 14.2271C87.9241 13.9398 88.4418 13.8 89.0294 13.8C89.5821 13.8 90.0608 13.9242 90.4773 14.1727C90.8976 14.4212 91.2206 14.7629 91.4541 15.1939C91.6877 15.621 91.8083 16.1102 91.8122 16.6616H86.0793H86.0754Z" fill="#1D1D1B"/>
<path d="M145.413 18.0169C144.93 17.749 144.37 17.5859 143.728 17.5315C144.545 17.384 145.187 17.0967 145.658 16.6657C146.137 16.2308 146.374 15.6756 146.374 14.9922C146.374 13.9632 145.954 13.1595 145.109 12.581C144.272 12.0063 143.132 11.7151 141.684 11.7151H136.559V23.8955H142.471C143.424 23.8955 144.234 23.7596 144.903 23.4917C145.576 23.216 146.086 22.8355 146.436 22.3423C146.791 21.8453 146.97 21.2629 146.97 20.5912C146.97 20.0204 146.833 19.5157 146.557 19.0769C146.281 18.6381 145.899 18.2848 145.413 18.013V18.0169ZM139.252 14.0215H141.684C142.288 14.0215 142.759 14.1418 143.097 14.3787C143.44 14.6155 143.615 14.9456 143.615 15.361C143.615 15.6523 143.541 15.9046 143.393 16.1143C143.245 16.3201 143.031 16.4832 142.751 16.5997C142.471 16.7123 142.132 16.7666 141.743 16.7666H139.256V14.0215H139.252ZM143.72 21.2668C143.416 21.5153 143.004 21.6396 142.471 21.6396H139.252V18.6187H142.471C143 18.6187 143.416 18.7624 143.72 19.0536C144.023 19.3409 144.171 19.7331 144.171 20.234C144.171 20.6688 144.02 21.0105 143.72 21.2629V21.2668Z" fill="#1D1D1B"/>
<path d="M164.97 20.0166V11.7229H162.195V23.9033H165.161L170.029 15.6018V23.9033H172.812V11.7229H169.854L164.97 20.0166Z" fill="#1D1D1B"/>
<path d="M157.696 12.4526C157.213 12.1342 156.68 11.909 156.1 11.7693C155.52 11.6295 154.933 11.5635 154.345 11.5635C153.492 11.5635 152.714 11.6916 152.01 11.944C151.305 12.1925 150.71 12.5691 150.223 13.07C149.737 13.567 149.386 14.1844 149.172 14.926L151.858 15.3065C152.002 14.8872 152.278 14.5261 152.683 14.2193C153.095 13.9126 153.656 13.7611 154.36 13.7611C155.03 13.7611 155.54 13.9242 155.894 14.2543C156.248 14.5804 156.427 15.0464 156.427 15.6404V15.687C156.427 15.9627 156.322 16.1646 156.116 16.2966C155.913 16.4248 155.59 16.5179 155.147 16.5839C154.703 16.6422 154.123 16.7082 153.407 16.782C152.815 16.8441 152.239 16.9489 151.683 17.0926C151.13 17.2285 150.636 17.4343 150.196 17.7022C149.756 17.9701 149.41 18.3312 149.157 18.7816C148.904 19.232 148.775 19.7989 148.775 20.4862C148.775 21.286 148.954 21.9539 149.309 22.5014C149.671 23.0449 150.157 23.4565 150.772 23.74C151.391 24.0156 152.087 24.1515 152.862 24.1515C153.496 24.1515 154.053 24.0661 154.524 23.8914C155.003 23.7128 155.396 23.4759 155.707 23.1847C156.026 22.8896 156.271 22.5712 156.446 22.2334H156.544V23.9069H159.311V15.7569C159.311 14.9493 159.163 14.2737 158.867 13.734C158.575 13.1943 158.19 12.771 157.707 12.4565L157.696 12.4526ZM156.431 19.5349C156.431 19.9853 156.314 20.4008 156.081 20.7813C155.851 21.1618 155.528 21.4685 155.104 21.7015C154.68 21.9306 154.177 22.0432 153.601 22.0432C153.025 22.0432 152.512 21.9073 152.122 21.6394C151.737 21.3715 151.543 20.9715 151.543 20.4435C151.543 20.0746 151.64 19.7717 151.838 19.5388C152.033 19.3019 152.302 19.1155 152.64 18.9835C152.979 18.8515 153.364 18.7544 153.792 18.6962C153.983 18.669 154.209 18.638 154.469 18.5991C154.73 18.5603 154.991 18.5215 155.256 18.471C155.52 18.4244 155.758 18.3662 155.972 18.304C156.19 18.2419 156.341 18.172 156.431 18.0982V19.5349Z" fill="#1D1D1B"/>
<path d="M183.78 18.0827C183.394 17.8342 182.959 17.6983 182.476 17.6712V17.543C183.176 17.3567 183.733 17.0499 184.146 16.6228C184.558 16.1879 184.764 15.6405 184.764 14.9804C184.764 14.3203 184.578 13.6952 184.2 13.1904C183.823 12.6779 183.289 12.2779 182.597 11.9945C181.904 11.7072 181.079 11.5674 180.125 11.5674C179.234 11.5674 178.436 11.711 177.724 12.0023C177.019 12.2935 176.459 12.7012 176.039 13.2215C175.626 13.7456 175.412 14.3591 175.404 15.0697H178.241C178.257 14.662 178.452 14.3281 178.829 14.0718C179.211 13.8116 179.689 13.6835 180.261 13.6835C180.833 13.6835 181.281 13.8233 181.604 14.1029C181.931 14.3824 182.098 14.7474 182.098 15.1978C182.098 15.6172 181.943 15.9627 181.631 16.2384C181.324 16.5141 180.872 16.65 180.273 16.65H178.405V18.6885H180.273C180.674 18.6885 181.024 18.7583 181.324 18.8942C181.624 19.0301 181.849 19.2282 182.017 19.4806C182.18 19.7291 182.262 20.0164 182.262 20.3464C182.262 20.9017 182.048 21.3171 181.62 21.5928C181.195 21.8607 180.674 21.9966 180.055 21.9966C179.436 21.9966 178.95 21.8724 178.568 21.6239C178.187 21.3754 177.985 21.022 177.957 20.5677H175.104C175.132 21.3171 175.361 21.9617 175.797 22.4936C176.233 23.0256 176.817 23.4371 177.553 23.7245C178.296 24.004 179.133 24.1438 180.071 24.1438C181.009 24.1438 181.892 24.0001 182.639 23.7089C183.391 23.4177 183.982 23.0023 184.41 22.4625C184.838 21.919 185.052 21.2744 185.052 20.5289C185.052 19.9775 184.94 19.4961 184.71 19.0767C184.48 18.6574 184.177 18.3274 183.787 18.0866L183.78 18.0827Z" fill="#1D1D1B"/>
<path d="M196.471 13.0389C195.958 12.5381 195.362 12.1653 194.693 11.9285C194.023 11.6838 193.315 11.5635 192.564 11.5635C191.4 11.5635 190.384 11.8314 189.52 12.3633C188.656 12.8914 187.983 13.633 187.5 14.5843C187.022 15.5317 186.784 16.6305 186.784 17.8808C186.784 19.1311 187.022 20.261 187.5 21.2045C187.979 22.1403 188.656 22.8625 189.544 23.3789C190.435 23.8875 191.49 24.1399 192.716 24.1399C193.665 24.1399 194.506 23.9962 195.241 23.7128C195.977 23.4216 196.58 23.0139 197.055 22.4936C197.534 21.9655 197.857 21.3482 198.024 20.6376L195.339 20.3347C195.21 20.6764 195.024 20.9676 194.774 21.2006C194.525 21.4336 194.23 21.6083 193.891 21.7326C193.552 21.849 193.175 21.9073 192.754 21.9073C192.128 21.9073 191.583 21.7753 191.116 21.5112C190.649 21.2433 190.287 20.855 190.026 20.3542C189.777 19.8649 189.649 19.2786 189.641 18.603H198.141V17.7216C198.141 16.6538 197.993 15.7336 197.697 14.9609C197.401 14.1844 196.993 13.5437 196.475 13.0428L196.471 13.0389ZM189.649 16.6616C189.676 16.184 189.793 15.7414 190.011 15.3376C190.26 14.8794 190.606 14.5066 191.054 14.2271C191.497 13.9398 192.015 13.8 192.603 13.8C193.155 13.8 193.634 13.9242 194.051 14.1727C194.471 14.4212 194.794 14.7629 195.027 15.1939C195.261 15.621 195.382 16.1102 195.385 16.6616H189.653H189.649Z" fill="#1D1D1B"/>
<path d="M211.42 14.4018C210.977 13.4661 210.369 12.7594 209.607 12.2857C208.848 11.8042 207.999 11.5635 207.057 11.5635C206.341 11.5635 205.753 11.6838 205.294 11.9285C204.835 12.1653 204.469 12.4526 204.197 12.7943C203.928 13.1282 203.718 13.4428 203.57 13.7379H203.403V11.7227H200.573V28.4692H203.449V21.9849H203.57C203.722 22.28 203.94 22.5945 204.212 22.9285C204.492 23.2546 204.862 23.5381 205.325 23.7671C205.785 24.0001 206.368 24.1166 207.065 24.1166C208.023 24.1166 208.883 23.872 209.642 23.3789C210.401 22.8857 211 22.1752 211.436 21.2394C211.876 20.3037 212.094 19.166 212.094 17.8303C212.094 16.4946 211.868 15.3337 211.416 14.4057L211.42 14.4018ZM208.828 19.8494C208.61 20.4396 208.287 20.9094 207.859 21.2511C207.431 21.5889 206.898 21.7597 206.263 21.7597C205.629 21.7597 205.135 21.5967 204.707 21.2666C204.282 20.9327 203.955 20.4706 203.73 19.8805C203.508 19.2903 203.395 18.5991 203.395 17.8109C203.395 17.0227 203.504 16.3393 203.722 15.7569C203.944 15.1745 204.271 14.7241 204.699 14.4018C205.127 14.0795 205.648 13.9165 206.263 13.9165C206.878 13.9165 207.439 14.0834 207.867 14.4173C208.295 14.7513 208.618 15.2094 208.836 15.7957C209.054 16.382 209.163 17.0538 209.163 17.8109C209.163 18.5681 209.05 19.2514 208.828 19.8494Z" fill="#1D1D1B"/>
<path d="M131.367 23.3556C132.242 22.8314 132.916 22.1014 133.394 21.1579C133.877 20.2183 134.118 19.1194 134.118 17.8614C134.118 16.6034 133.877 15.5006 133.394 14.5532C132.916 13.6058 132.242 12.872 131.367 12.3478C130.491 11.8236 129.46 11.5635 128.269 11.5635C127.078 11.5635 126.042 11.8236 125.171 12.3478C124.299 12.872 123.618 13.6058 123.135 14.5532C122.656 15.5006 122.419 16.6034 122.419 17.8614C122.419 19.1194 122.656 20.2183 123.135 21.1579C123.618 22.0975 124.295 22.8314 125.171 23.3556C126.046 23.8798 127.078 24.1399 128.269 24.1399C129.46 24.1399 130.495 23.8798 131.367 23.3556ZM125.653 19.8688C125.443 19.267 125.334 18.5952 125.334 17.8536C125.334 17.112 125.439 16.4325 125.653 15.8307C125.871 15.2211 126.198 14.7396 126.63 14.3785C127.07 14.0174 127.623 13.8388 128.284 13.8388C128.946 13.8388 129.471 14.0174 129.907 14.3785C130.343 14.7396 130.666 15.2211 130.876 15.8307C131.094 16.4325 131.203 17.1081 131.203 17.8536C131.203 18.5991 131.094 19.2631 130.876 19.8688C130.666 20.4706 130.339 20.9521 129.907 21.3132C129.471 21.6665 128.934 21.8452 128.284 21.8452C127.634 21.8452 127.07 21.6665 126.63 21.3132C126.194 20.9521 125.871 20.4745 125.653 19.8688Z" fill="#1D1D1B"/>
<path d="M109.793 33.7733C109.26 33.2142 108.618 32.7832 107.879 32.4803C107.135 32.1775 106.318 32.0299 105.423 32.0299V28.1277H102.539V32.0299C101.644 32.0299 100.826 32.1813 100.083 32.4803C99.3396 32.7832 98.7013 33.2142 98.1603 33.7733C97.6271 34.3285 97.2107 34.9925 96.911 35.7652C96.6191 36.5379 96.4751 37.3921 96.4751 38.3278C96.4751 39.2636 96.6191 40.1178 96.911 40.8905C97.2068 41.6554 97.6232 42.3194 98.1603 42.8746C98.7013 43.4298 99.3435 43.8569 100.083 44.1598C100.826 44.4627 101.644 44.6102 102.539 44.6102V48.5124H105.423V44.6102C106.318 44.6102 107.135 44.4588 107.879 44.1598C108.622 43.8569 109.26 43.4298 109.793 42.8746C110.334 42.3194 110.751 41.6593 111.043 40.8905C111.339 40.1178 111.486 39.2636 111.486 38.3278C111.486 37.3921 111.339 36.5379 111.043 35.7652C110.751 34.9925 110.334 34.3285 109.793 33.7733ZM100.822 41.7486C100.363 41.3875 100.013 40.9099 99.7716 40.3119C99.5342 39.7101 99.4135 39.0461 99.4135 38.3201C99.4135 37.7765 99.4797 37.2639 99.612 36.7902C99.7483 36.3088 99.9467 35.8855 100.208 35.5206C100.472 35.1517 100.799 34.8644 101.184 34.6547C101.577 34.445 102.025 34.3363 102.535 34.3363V42.2805C101.858 42.2805 101.286 42.1019 100.819 41.7408L100.822 41.7486ZM108.342 39.8615C108.209 40.3391 108.011 40.7585 107.746 41.1235C107.485 41.4884 107.162 41.7719 106.777 41.9816C106.392 42.1912 105.94 42.2922 105.427 42.2922V34.3479C106.112 34.3479 106.684 34.5304 107.143 34.8954C107.61 35.2565 107.96 35.7341 108.194 36.3398C108.427 36.9417 108.544 37.6056 108.544 38.3317C108.544 38.8753 108.478 39.3878 108.346 39.8693L108.342 39.8615Z" fill="#1D1D1B"/>
<path d="M74.2673 34.8215C74.711 34.5031 75.2287 34.3439 75.8164 34.3439C76.5091 34.3439 77.0657 34.542 77.4782 34.938C77.8986 35.3302 78.1632 35.8194 78.2722 36.4057H81.0238C80.9615 35.5282 80.7008 34.7633 80.2454 34.1071C79.7901 33.447 79.179 32.9345 78.4084 32.5773C77.6456 32.2123 76.7699 32.0298 75.7774 32.0298C74.5865 32.0298 73.5512 32.2977 72.6794 32.8296C71.8115 33.3577 71.1382 34.0993 70.6595 35.0506C70.1808 35.998 69.9434 37.0891 69.9434 38.3238C69.9434 39.5586 70.1769 40.6457 70.6439 41.5893C71.1148 42.5289 71.7843 43.2666 72.6561 43.8025C73.5318 44.3344 74.5748 44.6023 75.7969 44.6023C76.8205 44.6023 77.7079 44.4159 78.4668 44.0471C79.2257 43.6704 79.8251 43.154 80.261 42.494C80.7008 41.8261 80.9538 41.0651 81.0238 40.2031H78.2722C78.1866 40.6419 78.0309 41.0146 77.8052 41.3214C77.5755 41.6281 77.2953 41.8649 76.9567 42.028C76.622 42.1872 76.2445 42.2649 75.8202 42.2649C75.2209 42.2649 74.6994 42.1057 74.2557 41.7873C73.8159 41.465 73.4734 41.0068 73.2321 40.4167C72.9869 39.8187 72.8662 39.1043 72.8662 38.2772C72.8662 37.4502 72.9869 36.7552 73.2321 36.1689C73.4812 35.5826 73.8276 35.1321 74.2751 34.8215H74.2673Z" fill="#1D1D1B"/>
<path d="M91.8085 32.8141C90.9328 32.2899 89.9014 32.0298 88.7105 32.0298C87.5195 32.0298 86.4843 32.2899 85.6125 32.8141C84.7407 33.3383 84.0596 34.0721 83.577 35.0195C83.0983 35.967 82.8608 37.0697 82.8608 38.3277C82.8608 39.5857 83.0983 40.6846 83.577 41.6242C84.0596 42.5638 84.7368 43.2977 85.6125 43.8219C86.4882 44.3461 87.5195 44.6062 88.7105 44.6062C89.9014 44.6062 90.9367 44.3461 91.8085 43.8219C92.6803 43.2977 93.3575 42.5677 93.8362 41.6242C94.3188 40.6846 94.5601 39.5857 94.5601 38.3277C94.5601 37.0697 94.3188 35.967 93.8362 35.0195C93.3575 34.0721 92.6842 33.3383 91.8085 32.8141ZM91.3142 40.3312C91.1041 40.9331 90.7771 41.4145 90.3451 41.7756C89.9092 42.129 89.3721 42.3076 88.7222 42.3076C88.0722 42.3076 87.5079 42.129 87.0681 41.7756C86.6322 41.4145 86.3091 40.937 86.0912 40.3312C85.881 39.7294 85.772 39.0577 85.772 38.3161C85.772 37.5744 85.8771 36.8949 86.0912 36.2931C86.3091 35.6835 86.6361 35.202 87.0681 34.8409C87.5079 34.4798 88.0605 34.3012 88.7222 34.3012C89.3838 34.3012 89.9092 34.4798 90.3451 34.8409C90.781 35.202 91.1041 35.6835 91.3142 36.2931C91.5322 36.8949 91.6412 37.5706 91.6412 38.3161C91.6412 39.0616 91.5322 39.7255 91.3142 40.3312Z" fill="#1D1D1B"/>
<path d="M112.572 34.5419H116.519V44.3655H119.302V34.5419H123.252V32.189H112.572V34.5419Z" fill="#1D1D1B"/>
<path d="M132.207 36.7008C132.199 36.5688 132.196 36.4484 132.196 36.3319V35.9708C132.196 35.7223 132.106 35.4661 131.923 35.202C131.744 34.9419 131.456 34.7788 131.067 34.7167C131.374 34.6662 131.616 34.5885 131.787 34.4759C132.11 34.2663 132.273 33.9401 132.273 33.5014C132.273 32.8801 132.017 32.4608 131.503 32.2472C131.215 32.1268 130.763 32.0686 130.148 32.0686H128.413V37.0153H129.288V35.0622H129.977C130.44 35.0622 130.763 35.1166 130.95 35.2214C131.262 35.4039 131.417 35.7845 131.417 36.3591V36.7513L131.437 36.9105C131.441 36.9299 131.444 36.9493 131.448 36.9648C131.452 36.9804 131.456 36.9959 131.46 37.0153H132.277L132.246 36.9532C132.227 36.9105 132.211 36.825 132.203 36.6969L132.207 36.7008ZM130.907 34.3478C130.724 34.4216 130.444 34.4565 130.078 34.4565H129.292V32.6627H130.036C130.518 32.6627 130.872 32.7248 131.086 32.8452C131.308 32.9694 131.417 33.2102 131.417 33.5713C131.417 33.9518 131.246 34.208 130.907 34.3439V34.3478Z" fill="#1D1D1B"/>
<path d="M130.238 30.0613C128.996 30.0613 127.934 30.5 127.058 31.3737C126.182 32.2473 125.735 33.3151 125.735 34.5537C125.735 35.7923 126.171 36.8717 127.046 37.7531C127.926 38.6384 128.989 39.081 130.242 39.081C131.495 39.081 132.561 38.6384 133.441 37.7531C134.321 36.8678 134.764 35.804 134.764 34.5537C134.764 33.3034 134.324 32.2512 133.441 31.3737C132.557 30.4962 131.491 30.0613 130.242 30.0613H130.238ZM132.99 37.3182C132.234 38.0793 131.316 38.4598 130.238 38.4598C129.16 38.4598 128.241 38.0793 127.486 37.3182C126.735 36.5572 126.361 35.637 126.361 34.5576C126.361 33.4782 126.739 32.5696 127.494 31.8124C128.253 31.0514 129.168 30.6709 130.238 30.6709C131.308 30.6709 132.231 31.0514 132.99 31.8124C133.745 32.5696 134.122 33.4859 134.122 34.5576C134.122 35.6292 133.745 36.5572 132.99 37.3182Z" fill="#1D1D1B"/>
</g>
<defs>
<clipPath id="clip0_2001_4171">
<rect width="212" height="55" fill="white" transform="translate(0.0981445 0.61792)"/>
</clipPath>
</defs>
</svg>
