<svg width="315" height="313" viewBox="0 0 315 313" fill="none" xmlns="http://www.w3.org/2000/svg">
<rect x="120.93" y="99.6064" width="112.354" height="148.158" rx="19.5" stroke="#D9D9D9"/>
<path d="M195.416 99.5242V83.9395C195.416 72.8938 186.462 63.9395 175.416 63.9395H102.062C91.0168 63.9395 82.0625 72.8938 82.0625 83.9395V193.097C82.0625 204.143 91.0168 213.097 102.063 213.097H120.54" stroke="#D9D9D9"/>
<circle cx="156.305" cy="167.474" r="41.645" stroke="#1D1D1B" stroke-width="2"/>
<path d="M188.211 196.765L221.781 230.334" stroke="#1D1D1B" stroke-width="2"/>
<circle cx="139.165" cy="158.617" r="1.96191" fill="#1D1D1B"/>
<circle cx="169.431" cy="158.617" r="1.96191" fill="#1D1D1B"/>
<path d="M143.305 186.302L162.487 178.454" stroke="#1D1D1B" stroke-width="2"/>
<path d="M31.2285 191.752V189.801L69.4386 128.014H71.0646V133.38H69.1135L34.9682 188.825V189.151H82.4464V191.752H31.2285ZM69.4386 211.264V190.939V190.126V128.014H72.0402V211.264H69.4386Z" fill="#1D1D1B"/>
<path d="M237.412 191.752V189.801L275.622 128.014H277.248V133.38H275.297L241.152 188.825V189.151H288.63V191.752H237.412ZM275.622 211.264V190.939V190.126V128.014H278.224V211.264H275.622Z" fill="#1D1D1B"/>
</svg>
