<svg width="15" height="21" viewBox="0 0 15 21" fill="none" xmlns="http://www.w3.org/2000/svg">
<path d="M4.61696 12.413C4.61696 12.9653 5.06468 13.413 5.61696 13.413H8.84014C9.39243 13.413 9.84014 12.9653 9.84014 12.413V12.0853C9.84014 11.8206 9.88206 11.6581 9.924 11.5642L9.92402 11.5642L9.92665 11.5582C9.97994 11.4367 10.061 11.3217 10.1843 11.2109L10.1844 11.2109L10.1926 11.2034C10.3514 11.0575 10.5652 10.9006 10.8454 10.737C11.3496 10.4438 11.8023 10.1122 12.1971 9.73905L12.1974 9.73878C12.6264 9.33298 12.965 8.86061 13.2062 8.32592C13.4667 7.75427 13.5823 7.12392 13.5823 6.45836C13.5823 5.42445 13.3123 4.48494 12.7111 3.70941C12.1413 2.96981 11.3758 2.4387 10.459 2.0999C9.56319 1.76437 8.57234 1.60693 7.5017 1.60693C6.50608 1.60693 5.56846 1.77397 4.70073 2.12174C3.79028 2.48194 3.04191 3.0603 2.48083 3.84983C1.884 4.68494 1.62275 5.715 1.61235 6.85899C1.60992 7.12577 1.7142 7.38246 1.90199 7.57197C2.08978 7.76148 2.34551 7.86808 2.6123 7.86808H6.10863C6.18887 7.86808 6.26689 7.85864 6.34166 7.84079C6.05106 8.05695 5.78937 8.29828 5.56096 8.56651C5.20594 8.97847 4.97361 9.48383 4.82795 10.0329C4.67794 10.5983 4.61696 11.2944 4.61696 12.0853V12.413ZM7.33737 7.13804C7.21481 7.23364 7.07962 7.33319 6.93138 7.43666C7.04315 7.27523 7.10863 7.0793 7.10863 6.86808C7.10863 6.77295 7.12738 6.72597 7.1419 6.70037C7.17893 6.64455 7.22026 6.60687 7.2731 6.5768C7.33011 6.54657 7.39187 6.52965 7.47439 6.52965C7.55731 6.52965 7.60618 6.54581 7.63993 6.56309L7.63993 6.56309C7.67134 6.57918 7.68304 6.59229 7.69419 6.60994L7.69419 6.60994C7.69506 6.61132 7.69623 6.61317 7.69783 6.61904C7.69963 6.62565 7.70356 6.64348 7.70356 6.67688C7.70356 6.7418 7.68982 6.77098 7.67247 6.79642L7.66374 6.80944C7.60513 6.89837 7.50692 7.00832 7.34495 7.13219L7.34492 7.13215L7.33737 7.13804Z" fill="#D8F912" stroke="#1D1D1B" stroke-width="2" stroke-linejoin="round"/>
<rect x="4.96875" y="15.2812" width="4.51169" height="4.3475" fill="#D8F912" stroke="#1D1D1B" stroke-width="2" stroke-linejoin="round"/>
</svg>
