<?xml version="1.0" encoding="utf-8"?>
<!-- Generator: Adobe Illustrator 24.1.1, SVG Export Plug-In . SVG Version: 6.00 Build 0)  -->
<svg version="1.1" id="Слой_1" xmlns="http://www.w3.org/2000/svg" xmlns:xlink="http://www.w3.org/1999/xlink" x="0px" y="0px"
	 viewBox="0 0 700 142" style="enable-background:new 0 0 700 142;" xml:space="preserve">
<style type="text/css">
	.st0{fill:#F6F6F6;}
	.st1{fill:#A5A5A4;}
</style>
<g>
	<path class="st0" d="M42.5,91.8c5.8,0,10.5,4.7,10.5,10.5v29.4c0,5.2,4.3,9.5,9.5,9.5h583.2h44.1c5.2,0,9.5-4.3,9.5-9.5V63
		c0-5.2-4.3-9.5-9.5-9.5h-34.1c-5.8,0-10.5-4.7-10.5-10.5V10.6c0-5.2-4.3-9.5-9.5-9.5l-312.7,0l-161.4,0l-151.4,0
		c-5.2,0-9.5,4.3-9.5,9.5l0,71.7c0,5.2,4.3,9.5,9.5,9.5H42.5z"/>
	<path class="st1" d="M689.7,141.7H62.5c-5.5,0-10-4.5-10-10v-29.4c0-5.5-4.5-10-10-10H10.2c-5.5,0-10-4.5-10-10V10.6
		c0-5.5,4.5-10,10-10h625.5c5.5,0,10,4.5,10,10V43c0,5.5,4.5,10,10,10h34.1c5.5,0,10,4.5,10,10v68.7
		C699.7,137.2,695.3,141.7,689.7,141.7z M10.2,1.6c-5,0-9,4-9,9v71.7c0,5,4,9,9,9h32.3c6.1,0,11,4.9,11,11v29.4c0,5,4,9,9,9h627.2
		c5,0,9-4,9-9V63c0-5-4-9-9-9h-34.1c-6.1,0-11-4.9-11-11V10.6c0-5-4-9-9-9H10.2z"/>
</g>
</svg>
