<svg width="30" height="36" viewBox="0 0 30 36" fill="none" xmlns="http://www.w3.org/2000/svg">
<path d="M29.3078 33.5888V10.0372C29.3078 9.53999 29.1072 9.06379 28.7515 8.71639L20.5886 0.744705C20.3633 0.524672 20.061 0.402028 19.7461 0.403143C17.3877 0.411493 7.14259 0.444894 2.4514 0.412991C1.25088 0.404827 0.0976562 1.52855 0.0976562 2.7291L0.0976694 33.5888C0.0976699 34.6084 0.92422 35.4349 1.94382 35.4349H27.4616C28.4812 35.4349 29.3078 34.6084 29.3078 33.5888Z" fill="#D8F912"/>
<path d="M19.875 1.29242C19.875 0.941805 20.294 0.760848 20.5492 1.00123L28.5747 8.55979C28.8383 8.8081 28.6626 9.25098 28.3004 9.25098H21.475C20.5913 9.25098 19.875 8.53463 19.875 7.65098V1.29242Z" fill="url(#paint0_linear_2226_2099)"/>
<path d="M3.64355 24.8864C3.64355 24.3575 4.07228 23.9288 4.60115 23.9288L19.4291 23.9287C19.958 23.9287 20.3867 24.3575 20.3867 24.8864C20.3867 25.4152 19.958 25.844 19.4291 25.844H4.60115C4.07229 25.844 3.64355 25.4153 3.64355 24.8864Z" fill="#1D1D1B"/>
<path d="M3.64355 29.6569C3.64355 29.128 4.07228 28.6993 4.60115 28.6993L24.8039 28.6992C25.3328 28.6992 25.7615 29.128 25.7615 29.6569C25.7615 30.1858 25.3328 30.6145 24.8039 30.6145H4.60115C4.07228 30.6145 3.64355 30.1858 3.64355 29.6569Z" fill="#1D1D1B"/>
<defs>
<linearGradient id="paint0_linear_2226_2099" x1="21.1611" y1="10.72" x2="27.0375" y2="3.58435" gradientUnits="userSpaceOnUse">
<stop stop-color="#323232"/>
<stop offset="1" stop-color="#070707" stop-opacity="0"/>
</linearGradient>
</defs>
</svg>
