<svg width="250" height="250" viewBox="0 0 250 250" fill="none" xmlns="http://www.w3.org/2000/svg">
<circle cx="124.905" cy="124.861" r="123.778" stroke="#A5A5A4" stroke-dasharray="2 2"/>
<path d="M51.3532 96.974L65.0091 160.403C65.1518 161.066 65.8984 161.397 66.4858 161.059L156.844 109.019C158.73 107.933 159.697 105.751 159.235 103.625L145.57 40.7454C145.426 40.0829 144.678 39.7527 144.092 40.0923L136.42 44.5328L65.9678 85.3142L53.2597 92.6703C51.758 93.5395 50.988 95.2778 51.3532 96.974Z" fill="#566401" stroke="#1D1D1B"/>
<path d="M119.785 193.435L66.7133 162.829C66.0458 162.444 66.0461 161.481 66.7138 161.096L157.44 108.845C158.978 107.959 160.871 107.955 162.413 108.835L211.966 137.105C212.623 137.479 212.643 138.419 212.002 138.821L124.937 193.341C123.369 194.323 121.387 194.359 119.785 193.435Z" stroke="black"/>
<path d="M149.572 167.117L137.259 160.017C136.598 159.635 136.591 158.683 137.246 158.292L159.941 144.741C161.489 143.816 163.416 143.798 164.982 144.691L176.821 151.448C177.478 151.822 177.497 152.762 176.856 153.164L154.723 167.023C153.156 168.005 151.174 168.041 149.572 167.117Z" fill="#566401"/>
<path d="M149.572 167.117L137.256 160.015C136.595 159.634 136.587 158.683 137.24 158.291L159.896 144.693C161.449 143.761 163.384 143.742 164.956 144.642L176.826 151.447C177.481 151.823 177.499 152.761 176.859 153.162L154.723 167.024C153.156 168.005 151.174 168.041 149.572 167.117Z" stroke="black"/>
<path d="M65.386 161.37L62.8008 159.749C62.5723 159.606 62.4113 159.376 62.3545 159.112L48.8949 96.6213C48.4395 94.5065 49.3956 92.3387 51.2644 91.2491L63.526 84.0999M145.14 40.1094L143.904 39.5511C142.746 39.0277 141.408 39.0862 140.299 39.7087L134.353 43.0478" stroke="#1D1D1B"/>
<path d="M212.917 138.075V141.425C212.917 141.769 212.741 142.088 212.45 142.271L124.95 197.273C123.375 198.263 121.382 198.297 119.775 197.362L66.2337 166.22C65.9259 166.041 65.7365 165.711 65.7365 165.355V161.809" stroke="black"/>
<path d="M132.952 35.7497L142.647 85.23C142.729 85.6506 142.535 86.0769 142.163 86.29L74.9553 124.785C74.6504 124.96 74.2762 124.961 73.9696 124.79L71.6394 123.485C71.3829 123.341 71.2026 123.092 71.1464 122.803L61.5572 73.5724C61.4759 73.1548 61.6676 72.7315 62.0352 72.5172L128.156 33.9775C128.404 33.8329 128.703 33.8019 128.975 33.8925L132.286 34.993C132.629 35.1067 132.883 35.3959 132.952 35.7497Z" fill="#D8F912" stroke="#1D1D1B"/>
<path d="M64.4627 76.0552L74.0304 124.094C74.1637 124.763 74.9143 125.105 75.5072 124.766L142.334 86.5797C142.707 86.3666 142.902 85.9391 142.819 85.5177L132.994 35.7797C132.861 35.1078 132.108 34.7652 131.514 35.1068L65.9083 72.8691C64.7929 73.5111 64.2113 74.793 64.4627 76.0552Z" stroke="#1D1D1B"/>
<path d="M74.4344 125.157L71.8226 123.598C71.5811 123.454 71.4115 123.215 71.3553 122.939L61.6039 75.1622C61.3459 73.8985 61.9246 72.6113 63.0411 71.9655L126.948 34.9983C128.184 34.2837 129.665 34.1311 131.02 34.5787L132.39 35.0312" stroke="#1D1D1B"/>
<path d="M64.6615 74.1492L103.793 86.1945C104.25 86.3349 104.742 86.1332 104.968 85.7129L132.405 34.7686" stroke="#1D1D1B"/>
<path d="M74.3013 125.243C75.1541 124.39 89.4398 97.3108 96.476 83.8779" stroke="#1D1D1B"/>
<path d="M142.752 86.0951L110.206 76.0952" stroke="#1D1D1B"/>
<g filter="url(#filter0_b_2263_14669)">
<rect x="168.273" y="14.1895" width="61.4132" height="60.688" rx="13" fill="black" fill-opacity="0.03"/>
</g>
<path d="M178.029 51.5667V30.799C178.029 27.3404 180.833 24.5366 184.292 24.5366H187.079H215.2C218.057 24.5366 220.372 26.852 220.372 29.7083V51.5667C220.372 55.0253 217.568 57.8291 214.11 57.8291H205.959C200.888 57.8291 196.006 59.7555 192.302 63.2186L190.445 64.9539C189.167 66.1487 187.079 65.2424 187.079 63.4929V57.8291H184.292C180.833 57.8291 178.029 55.0253 178.029 51.5667Z" fill="url(#paint0_linear_2263_14669)"/>
<rect x="183.347" y="41.0371" width="31.6899" height="3.49615" rx="1.74808" fill="url(#paint1_linear_2263_14669)"/>
<rect x="183.347" y="46.5947" width="23.0532" height="3.49615" rx="1.74808" fill="url(#paint2_linear_2263_14669)"/>
<rect x="183.347" y="32.5093" width="31.6899" height="3.66752" rx="1.83376" fill="#D8F912"/>
<g filter="url(#filter1_b_2263_14669)">
<rect x="2.96826" y="168.578" width="61.4132" height="60.688" rx="13" fill="black" fill-opacity="0.03"/>
</g>
<path d="M12.7246 213.786V184.851C12.7246 181.393 15.5284 178.589 18.987 178.589H48.805C52.2637 178.589 55.0674 181.393 55.0674 184.851V213.786C55.0674 217.244 52.2636 220.048 48.805 220.048H18.987C15.5284 220.048 12.7246 217.244 12.7246 213.786Z" fill="url(#paint3_linear_2263_14669)"/>
<path d="M33.9337 213.383C31.6681 213.383 29.6511 213.074 27.8826 212.456C26.1141 211.846 24.6191 210.947 23.3975 209.761C22.1759 208.582 21.2455 207.14 20.6063 205.436C19.9671 203.731 19.6475 201.792 19.6475 199.619C19.6475 197.474 19.9671 195.528 20.6063 193.781C21.2526 192.034 22.1937 190.535 23.4295 189.285C24.6653 188.028 26.1745 187.062 27.9572 186.387C29.7469 185.713 31.7853 185.375 34.0722 185.375C36.1887 185.375 38.0779 185.684 39.7398 186.302C41.4089 186.92 42.8222 187.801 43.9799 188.944C45.1447 190.081 46.0289 191.434 46.6326 193.003C47.2434 194.566 47.5452 196.295 47.5381 198.191C47.5452 199.498 47.4316 200.699 47.1972 201.792C46.9628 202.886 46.5935 203.841 46.0893 204.658C45.5921 205.468 44.9387 206.11 44.129 206.586C43.3194 207.055 42.3393 207.321 41.1887 207.385C40.3648 207.449 39.6972 207.389 39.1859 207.204C38.6745 207.02 38.2839 206.746 38.014 206.384C37.7512 206.015 37.5807 205.585 37.5026 205.095H37.3748C37.2043 205.521 36.8705 205.908 36.3734 206.256C35.8762 206.597 35.269 206.863 34.5516 207.055C33.8414 207.24 33.085 207.307 32.2824 207.257C31.4444 207.208 30.6489 207.012 29.8961 206.672C29.1503 206.331 28.4863 205.837 27.9039 205.191C27.3286 204.544 26.8741 203.745 26.5403 202.794C26.2136 201.842 26.0467 200.741 26.0396 199.491C26.0467 198.255 26.2207 197.179 26.5616 196.263C26.9096 195.347 27.3677 194.576 27.9359 193.951C28.5111 193.326 29.1503 192.836 29.8535 192.481C30.5566 192.126 31.2633 191.899 31.9735 191.799C32.7761 191.679 33.536 191.679 34.2533 191.799C34.9707 191.92 35.5744 192.115 36.0644 192.385C36.5616 192.655 36.8705 192.946 36.9913 193.259H37.1404V192.066H40.4749V202.463C40.482 202.953 40.5921 203.333 40.8052 203.603C41.0182 203.873 41.3059 204.008 41.6681 204.008C42.1582 204.008 42.5665 203.792 42.8932 203.358C43.2271 202.925 43.4756 202.261 43.639 201.366C43.8094 200.471 43.8947 199.331 43.8947 197.946C43.8947 196.611 43.7171 195.439 43.362 194.431C43.014 193.415 42.5239 192.552 41.8918 191.842C41.2668 191.125 40.5388 190.542 39.7079 190.095C38.8769 189.647 37.9749 189.321 37.0019 189.115C36.036 188.909 35.0417 188.806 34.019 188.806C32.2505 188.806 30.7057 189.076 29.3847 189.615C28.0637 190.148 26.9628 190.897 26.0822 191.863C25.2015 192.829 24.541 193.962 24.1006 195.262C23.6674 196.554 23.4472 197.964 23.4401 199.491C23.4472 201.174 23.6816 202.666 24.1432 203.966C24.612 205.258 25.3009 206.345 26.21 207.225C27.1191 208.106 28.2413 208.774 29.5765 209.228C30.9117 209.683 32.4458 209.91 34.1788 209.91C34.9955 209.91 35.7945 209.85 36.5758 209.729C37.357 209.615 38.0637 209.473 38.6958 209.303C39.3279 209.14 39.8357 208.98 40.2192 208.824L41.2739 211.913C40.8265 212.169 40.2192 212.407 39.4522 212.627C38.6923 212.854 37.8329 213.035 36.8741 213.17C35.9224 213.312 34.9423 213.383 33.9337 213.383ZM33.4437 203.752C34.3101 203.752 34.9991 203.586 35.5104 203.252C36.0289 202.918 36.3982 202.424 36.6184 201.771C36.8457 201.11 36.9522 200.297 36.938 199.331C36.9309 198.479 36.8208 197.758 36.6077 197.169C36.4018 196.572 36.0431 196.121 35.5317 195.816C35.0275 195.503 34.3244 195.347 33.4224 195.347C32.634 195.347 31.9628 195.514 31.4089 195.848C30.862 196.181 30.443 196.65 30.1518 197.254C29.8677 197.85 29.7221 198.554 29.715 199.363C29.7221 200.116 29.8428 200.83 30.0772 201.505C30.3116 202.172 30.6986 202.716 31.2384 203.135C31.7782 203.547 32.5133 203.752 33.4437 203.752Z" fill="url(#paint4_linear_2263_14669)"/>
<g filter="url(#filter2_b_2263_14669)">
<rect x="186.167" y="184.602" width="61.4132" height="60.688" rx="13" fill="black" fill-opacity="0.03"/>
</g>
<path d="M195.923 229.809V200.875C195.923 197.416 198.727 194.612 202.185 194.612H232.003C235.462 194.612 238.266 197.416 238.266 200.875V229.809C238.266 233.268 235.462 236.071 232.003 236.071H202.185C198.727 236.071 195.923 233.268 195.923 229.809Z" fill="url(#paint5_linear_2263_14669)"/>
<path d="M225.831 203.397L223.137 201.431C222.176 200.73 220.82 201.017 220.226 202.046L217.667 206.477C217.115 207.434 217.443 208.657 218.4 209.209L220.167 210.23C220.662 210.516 220.878 211.117 220.678 211.653C219.317 215.29 217.362 218.676 214.893 221.673C214.529 222.114 213.9 222.228 213.405 221.942L211.637 220.922C210.681 220.369 209.458 220.697 208.905 221.654L206.647 225.565C206.053 226.594 206.482 227.912 207.57 228.393L210.62 229.744C212.27 230.475 214.205 229.99 215.315 228.568C220.199 222.313 224.186 215.408 227.16 208.051C227.837 206.379 227.289 204.46 225.831 203.397Z" fill="url(#paint6_linear_2263_14669)"/>
<defs>
<filter id="filter0_b_2263_14669" x="160.594" y="6.51093" width="76.7703" height="76.045" filterUnits="userSpaceOnUse" color-interpolation-filters="sRGB">
<feFlood flood-opacity="0" result="BackgroundImageFix"/>
<feGaussianBlur in="BackgroundImageFix" stdDeviation="3.83926"/>
<feComposite in2="SourceAlpha" operator="in" result="effect1_backgroundBlur_2263_14669"/>
<feBlend mode="normal" in="SourceGraphic" in2="effect1_backgroundBlur_2263_14669" result="shape"/>
</filter>
<filter id="filter1_b_2263_14669" x="-4.71026" y="160.9" width="76.7703" height="76.045" filterUnits="userSpaceOnUse" color-interpolation-filters="sRGB">
<feFlood flood-opacity="0" result="BackgroundImageFix"/>
<feGaussianBlur in="BackgroundImageFix" stdDeviation="3.83926"/>
<feComposite in2="SourceAlpha" operator="in" result="effect1_backgroundBlur_2263_14669"/>
<feBlend mode="normal" in="SourceGraphic" in2="effect1_backgroundBlur_2263_14669" result="shape"/>
</filter>
<filter id="filter2_b_2263_14669" x="178.488" y="176.923" width="76.7703" height="76.045" filterUnits="userSpaceOnUse" color-interpolation-filters="sRGB">
<feFlood flood-opacity="0" result="BackgroundImageFix"/>
<feGaussianBlur in="BackgroundImageFix" stdDeviation="3.83926"/>
<feComposite in2="SourceAlpha" operator="in" result="effect1_backgroundBlur_2263_14669"/>
<feBlend mode="normal" in="SourceGraphic" in2="effect1_backgroundBlur_2263_14669" result="shape"/>
</filter>
<linearGradient id="paint0_linear_2263_14669" x1="199.201" y1="24.5366" x2="199.201" y2="81.3353" gradientUnits="userSpaceOnUse">
<stop stop-color="white"/>
<stop offset="1" stop-color="white" stop-opacity="0"/>
</linearGradient>
<linearGradient id="paint1_linear_2263_14669" x1="176.737" y1="38.8193" x2="177.105" y2="46.4253" gradientUnits="userSpaceOnUse">
<stop stop-color="#1D1D1B" stop-opacity="0.39"/>
<stop offset="1" stop-color="#1D1D1B" stop-opacity="0.04"/>
</linearGradient>
<linearGradient id="paint2_linear_2263_14669" x1="178.538" y1="44.3769" x2="179.043" y2="51.9672" gradientUnits="userSpaceOnUse">
<stop stop-color="#1D1D1B" stop-opacity="0.39"/>
<stop offset="1" stop-color="#1D1D1B" stop-opacity="0.04"/>
</linearGradient>
<linearGradient id="paint3_linear_2263_14669" x1="33.896" y1="178.589" x2="33.896" y2="230.419" gradientUnits="userSpaceOnUse">
<stop stop-color="white"/>
<stop offset="1" stop-color="white" stop-opacity="0"/>
</linearGradient>
<linearGradient id="paint4_linear_2263_14669" x1="36.8015" y1="184.82" x2="36.8015" y2="222.539" gradientUnits="userSpaceOnUse">
<stop stop-color="#1D1D1B" stop-opacity="0.29"/>
<stop offset="1" stop-color="#1D1D1B" stop-opacity="0.08"/>
</linearGradient>
<linearGradient id="paint5_linear_2263_14669" x1="217.094" y1="194.612" x2="217.094" y2="246.442" gradientUnits="userSpaceOnUse">
<stop stop-color="white"/>
<stop offset="1" stop-color="white" stop-opacity="0"/>
</linearGradient>
<linearGradient id="paint6_linear_2263_14669" x1="225.055" y1="202.264" x2="209.251" y2="229.638" gradientUnits="userSpaceOnUse">
<stop stop-opacity="0.5"/>
<stop offset="1" stop-opacity="0"/>
</linearGradient>
</defs>
</svg>
