<svg width="24" height="25" viewBox="0 0 24 25" fill="none" xmlns="http://www.w3.org/2000/svg">
<g id="Group 4286532">
<rect id="Rectangle 8047" x="3.28613" y="0.949219" width="4.46335" height="4.46335" transform="rotate(45 3.28613 0.949219)" fill="#1D1D1B"/>
<rect id="Rectangle 8048" x="3.28613" y="7.26172" width="4.46335" height="4.46335" transform="rotate(45 3.28613 7.26172)" fill="#1D1D1B"/>
<rect id="Rectangle 8049" x="3.28613" y="13.5742" width="4.46335" height="4.46335" transform="rotate(45 3.28613 13.5742)" fill="#1D1D1B"/>
<rect id="Rectangle 8050" x="3.28613" y="19.8867" width="3.19303" height="3.19303" transform="rotate(45 3.28613 19.8867)" fill="#1D1D1B"/>
<rect id="Rectangle 8051" x="9.62988" y="19.8867" width="3.19303" height="3.19303" transform="rotate(45 9.62988 19.8867)" fill="#1D1D1B"/>
<rect id="Rectangle 8052" x="9.62988" y="13.7461" width="4.22054" height="4.22054" transform="rotate(45 9.62988 13.7461)" fill="#1D1D1B"/>
<rect id="Rectangle 8053" x="9.62988" y="7.26172" width="4.22054" height="4.22054" transform="rotate(45 9.62988 7.26172)" fill="#1D1D1B"/>
<rect id="Rectangle 8054" x="9.62988" y="1.12109" width="4.22054" height="4.22054" transform="rotate(45 9.62988 1.12109)" fill="#1D1D1B"/>
<rect id="Rectangle 8055" x="15.8174" y="2.23047" width="2.65165" height="2.65165" transform="rotate(45 15.8174 2.23047)" fill="#1D1D1B"/>
<rect id="Rectangle 8060" x="21.5986" y="2.23047" width="2.65165" height="2.65165" transform="rotate(45 21.5986 2.23047)" fill="#1D1D1B"/>
<rect id="Rectangle 8061" x="21.5986" y="8.37109" width="2.65165" height="2.65165" transform="rotate(45 21.5986 8.37109)" fill="#1D1D1B"/>
<rect id="Rectangle 8057" x="13.0674" y="5.38672" width="2.65165" height="2.65165" transform="rotate(45 13.0674 5.38672)" fill="#1D1D1B"/>
<rect id="Rectangle 8059" x="18.5674" y="5.38672" width="2.65165" height="2.65165" transform="rotate(45 18.5674 5.38672)" fill="#1D1D1B"/>
<rect id="Rectangle 8062" x="18.5674" y="11.3555" width="2.65165" height="2.65165" transform="rotate(45 18.5674 11.3555)" fill="#1D1D1B"/>
<rect id="Rectangle 8058" x="13.0674" y="11.3555" width="2.65165" height="2.65165" transform="rotate(45 13.0674 11.3555)" fill="#1D1D1B"/>
<rect id="Rectangle 8056" x="15.8174" y="8.37109" width="2.65165" height="2.65165" transform="rotate(45 15.8174 8.37109)" fill="#1D1D1B"/>
<rect id="Rectangle 8063" x="15.8174" y="15.6211" width="1.08276" height="1.08276" transform="rotate(45 15.8174 15.6211)" fill="#1D1D1B"/>
<rect id="Rectangle 8065" x="21.5986" y="15.6211" width="1.08276" height="1.08276" transform="rotate(45 21.5986 15.6211)" fill="#1D1D1B"/>
<rect id="Rectangle 8067" x="18.5674" y="18.6836" width="1.08276" height="1.08276" transform="rotate(45 18.5674 18.6836)" fill="#1D1D1B"/>
<rect id="Rectangle 8068" x="13.0674" y="18.6836" width="1.08276" height="1.08276" transform="rotate(45 13.0674 18.6836)" fill="#1D1D1B"/>
<rect id="Rectangle 8064" x="15.8174" y="21.7148" width="1.08276" height="1.08276" transform="rotate(45 15.8174 21.7148)" fill="#1D1D1B"/>
<rect id="Rectangle 8066" x="21.5986" y="21.7148" width="1.08276" height="1.08276" transform="rotate(45 21.5986 21.7148)" fill="#1D1D1B"/>
</g>
</svg>
