<svg width="67" height="67" viewBox="0 0 67 67" fill="none" xmlns="http://www.w3.org/2000/svg">
<g filter="url(#filter0_b_1603_27805)">
<rect x="0.337646" y="0.559082" width="65" height="65" rx="12" fill="black" fill-opacity="0.03"/>
</g>
<path d="M32.8372 39.1086L32.8372 50.9254" stroke="white"/>
<path d="M50.9536 50.9253H14.9831" stroke="white"/>
<circle cx="16.6489" cy="50.9253" r="1.66578" fill="#D8F912"/>
<circle cx="32.8374" cy="50.9253" r="1.66578" fill="#D8F912"/>
<circle cx="49.2881" cy="50.9253" r="1.66578" fill="#D8F912"/>
<path fill-rule="evenodd" clip-rule="evenodd" d="M47.8871 20.6732C47.8871 21.0324 47.8703 21.3877 47.8375 21.7383C51.791 22.8019 54.7011 26.4118 54.7011 30.7013C54.7011 35.5645 50.9605 39.5541 46.1995 39.95V39.9822H45.4442C45.4362 39.9823 45.4281 39.9823 45.4201 39.9823C45.4121 39.9823 45.4041 39.9823 45.3961 39.9822H20.5967C20.5883 39.9823 20.5799 39.9823 20.5715 39.9823C20.5631 39.9823 20.5547 39.9823 20.5463 39.9822H20.4659V39.9817C15.2141 39.9251 10.9741 35.6502 10.9741 30.3849C10.9741 25.7844 14.2111 21.9399 18.5317 21.0048C18.333 20.4645 18.2246 19.8806 18.2246 19.2714C18.2246 16.4974 20.4733 14.2487 23.2473 14.2487C24.5207 14.2487 25.6833 14.7225 26.5686 15.5034C28.4438 11.8715 32.233 9.38843 36.6023 9.38843C42.8347 9.38843 47.8871 14.4408 47.8871 20.6732Z" fill="url(#paint0_linear_1603_27805)"/>
<circle cx="32.8376" cy="26.7395" r="8.76461" fill="url(#paint1_linear_1603_27805)"/>
<path d="M29.9966 26.875L32.0541 28.9328L35.938 25.0488" stroke="#D8F912" stroke-width="3" stroke-linecap="round" stroke-linejoin="round"/>
<defs>
<filter id="filter0_b_1603_27805" x="-8.24527" y="-8.02383" width="82.1658" height="82.1658" filterUnits="userSpaceOnUse" color-interpolation-filters="sRGB">
<feFlood flood-opacity="0" result="BackgroundImageFix"/>
<feGaussianBlur in="BackgroundImageFix" stdDeviation="4.29146"/>
<feComposite in2="SourceAlpha" operator="in" result="effect1_backgroundBlur_1603_27805"/>
<feBlend mode="normal" in="SourceGraphic" in2="effect1_backgroundBlur_1603_27805" result="shape"/>
</filter>
<linearGradient id="paint0_linear_1603_27805" x1="32.8376" y1="9.38843" x2="32.8376" y2="39.9823" gradientUnits="userSpaceOnUse">
<stop stop-color="white"/>
<stop offset="1" stop-color="white" stop-opacity="0"/>
</linearGradient>
<linearGradient id="paint1_linear_1603_27805" x1="21.6679" y1="20.1531" x2="41.6022" y2="39.7183" gradientUnits="userSpaceOnUse">
<stop stop-color="#1D1D1B" stop-opacity="0.2"/>
<stop offset="1" stop-color="#1D1D1B" stop-opacity="0"/>
</linearGradient>
</defs>
</svg>
