<svg width="101" height="101" viewBox="0 0 101 101" fill="none" xmlns="http://www.w3.org/2000/svg">
<path d="M33.3187 50.0108C23.8868 50.0108 21.5288 58.0203 15.5645 58.0203V79.8837H73.1138C78.6367 79.8837 83.1138 75.4066 83.1138 69.8837V38.1792C70.463 38.1792 67.7175 58.0203 55.2483 58.0203C42.7792 58.0203 42.7506 50.0108 33.3187 50.0108Z" fill="#B2CE06"/>
<path d="M20.0498 30.3455V73.7571C20.0498 77.1408 22.7929 79.8839 26.1766 79.8839C29.5603 79.8839 32.3034 77.1408 32.3034 73.7571V69.902V30.3456C32.3034 26.9618 29.5603 24.2188 26.1766 24.2188C22.7929 24.2188 20.0498 26.9618 20.0498 30.3455Z" fill="url(#paint0_linear_2146_5654)"/>
<path d="M36.7627 45.1707V73.7571C36.7627 77.1409 39.5058 79.8839 42.8895 79.8839C46.2732 79.8839 49.0163 77.1409 49.0163 73.7571V72.5605V45.1707C49.0163 41.787 46.2732 39.0439 42.8895 39.0439C39.5058 39.0439 36.7627 41.787 36.7627 45.1707Z" fill="url(#paint1_linear_2146_5654)"/>
<path d="M53.4766 19.7308V73.7574C53.4766 77.1411 56.2196 79.8842 59.6034 79.8842C62.9871 79.8842 65.7302 77.1411 65.7302 73.7574V67.9989V19.7308C65.7302 16.3471 62.9871 13.604 59.6034 13.604C56.2196 13.604 53.4766 16.3471 53.4766 19.7308Z" fill="url(#paint2_linear_2146_5654)"/>
<path d="M70.8604 38.5506V73.757C70.8604 77.1407 73.6034 79.8838 76.9872 79.8838C80.3709 79.8838 83.1139 77.1407 83.1139 73.757V71.3733V38.5506C83.1139 35.1669 80.3709 32.4238 76.9872 32.4238C73.6034 32.4238 70.8604 35.1669 70.8604 38.5506Z" fill="url(#paint3_linear_2146_5654)"/>
<path d="M11.8535 84.6211L87.5679 84.6211" stroke="url(#paint4_linear_2146_5654)" stroke-width="1.53846"/>
<path d="M83.1172 79.6235L88.1144 84.6207L83.1172 89.6179" stroke="#1D1D1B" stroke-width="1.53846"/>
<path d="M15.5645 88.5996L15.5645 12.8852" stroke="url(#paint5_linear_2146_5654)" stroke-width="1.53846"/>
<path d="M10.7246 17.1782L15.5643 12.3385L20.4041 17.1782" stroke="#1D1D1B" stroke-width="1.53846"/>
<defs>
<linearGradient id="paint0_linear_2146_5654" x1="41.4629" y1="75.3513" x2="41.4629" y2="24.2187" gradientUnits="userSpaceOnUse">
<stop stop-color="white"/>
<stop offset="1" stop-color="white" stop-opacity="0.33"/>
</linearGradient>
<linearGradient id="paint1_linear_2146_5654" x1="58.1758" y1="76.5585" x2="58.1758" y2="39.0439" gradientUnits="userSpaceOnUse">
<stop stop-color="white"/>
<stop offset="1" stop-color="white" stop-opacity="0"/>
</linearGradient>
<linearGradient id="paint2_linear_2146_5654" x1="74.8897" y1="74.4873" x2="74.8897" y2="13.604" gradientUnits="userSpaceOnUse">
<stop stop-color="white"/>
<stop offset="1" stop-color="white" stop-opacity="0.57"/>
</linearGradient>
<linearGradient id="paint3_linear_2146_5654" x1="92.2734" y1="76.0193" x2="92.2734" y2="32.4238" gradientUnits="userSpaceOnUse">
<stop stop-color="white"/>
<stop offset="1" stop-color="white" stop-opacity="0.36"/>
</linearGradient>
<linearGradient id="paint4_linear_2146_5654" x1="88.97" y1="82.9961" x2="4.2056" y2="83.1261" gradientUnits="userSpaceOnUse">
<stop/>
<stop offset="1" stop-color="#1F1F1F" stop-opacity="0"/>
</linearGradient>
<linearGradient id="paint5_linear_2146_5654" x1="13.9395" y1="11.4831" x2="14.0695" y2="96.2475" gradientUnits="userSpaceOnUse">
<stop/>
<stop offset="1" stop-color="#1F1F1F" stop-opacity="0"/>
</linearGradient>
</defs>
</svg>
