<svg width="101" height="101" viewBox="0 0 101 101" fill="none" xmlns="http://www.w3.org/2000/svg">
<path d="M76.6166 32.1224C60.359 32.1827 35.8474 32.2471 25.0312 32.1899C22.1792 32.1748 19.5986 34.7007 19.5986 37.5528L19.5987 76.9685C19.5987 79.5175 21.665 81.5839 24.214 81.5839H33.9737V90.1115L45.4251 81.5839H76.6255C79.1745 81.5839 81.2409 79.5175 81.2409 76.9685L81.2409 36.7386C81.2409 34.1823 79.1729 32.1129 76.6166 32.1224Z" fill="#B2CE06"/>
<path d="M36.8845 23.2742C37.5989 18.0907 42.0289 14.2294 47.2614 14.2294H50.5887C51.1868 14.2294 51.7832 14.1667 52.3681 14.0424L60.3772 12.3407C61.5783 12.0855 62.7093 13.0015 62.7093 14.2294L61.7149 23.1547V33.3066C61.7149 39.4555 56.7303 44.4401 50.5814 44.4401C45.687 44.4401 41.3666 41.2437 39.9349 36.5634L37.2446 27.7685C36.7998 26.3143 36.6769 24.7807 36.8845 23.2742Z" fill="url(#paint0_linear_2146_12842)"/>
<path d="M36.2702 42.6071C37.6586 41.3411 39.7894 41.364 41.1502 42.6595L43.5749 44.9677C47.473 48.6788 53.5368 48.8692 57.6601 45.4101C58.4456 44.7511 59.5414 44.6059 60.4715 45.0374L69.7875 49.3604C72.504 50.6209 74.242 53.3434 74.242 56.338V58.1659C74.242 67.5123 66.6653 75.089 57.3189 75.089H35.8284C30.7304 75.089 26.5977 70.9563 26.5977 65.8582V54.8232C26.5977 52.66 27.5085 50.5968 29.1069 49.1392L36.2702 42.6071Z" fill="url(#paint1_linear_2146_12842)"/>
<path d="M42.0792 31.3733L41.824 29.6116C41.7066 28.8006 42.2688 28.0478 43.0799 27.9303C44.702 27.6954 46.2074 28.8199 46.4424 30.442L47.2243 35.8399L45.0569 35.0445C43.4655 34.4605 42.3222 33.051 42.0792 31.3733Z" fill="url(#paint2_linear_2146_12842)"/>
<path d="M44.8287 27.7779C43.2584 25.404 44.5076 22.1905 47.2691 21.5006L58.1368 18.7854C58.3555 18.7308 58.5802 18.7031 58.8056 18.7031C60.3295 18.7031 61.5649 19.9385 61.5649 21.4624V32.9911C61.5649 39.2744 56.4712 44.3681 50.1879 44.3681C48.6242 44.3681 47.3021 43.2104 47.0957 41.6605L45.4772 29.509C45.3948 28.8903 45.173 28.2984 44.8287 27.7779Z" fill="url(#paint3_linear_2146_12842)"/>
<defs>
<linearGradient id="paint0_linear_2146_12842" x1="46.6757" y1="9.31865" x2="62.7093" y2="26.4032" gradientUnits="userSpaceOnUse">
<stop stop-color="#323232"/>
<stop offset="1" stop-color="#070707" stop-opacity="0"/>
</linearGradient>
<linearGradient id="paint1_linear_2146_12842" x1="50.4198" y1="42.1918" x2="50.4198" y2="75.089" gradientUnits="userSpaceOnUse">
<stop stop-color="white"/>
<stop offset="1" stop-color="white" stop-opacity="0.21"/>
</linearGradient>
<linearGradient id="paint2_linear_2146_12842" x1="42.1336" y1="30.8552" x2="46.7656" y2="30.9154" gradientUnits="userSpaceOnUse">
<stop stop-color="white"/>
<stop offset="1" stop-color="#9CB40B"/>
</linearGradient>
<linearGradient id="paint3_linear_2146_12842" x1="55.9211" y1="23.9958" x2="41.6113" y2="31.5355" gradientUnits="userSpaceOnUse">
<stop stop-color="white"/>
<stop offset="1" stop-color="#B3CF0A"/>
</linearGradient>
</defs>
</svg>
