<svg width="101" height="101" viewBox="0 0 101 101" fill="none" xmlns="http://www.w3.org/2000/svg">
<rect x="22.4521" y="41.8237" width="13.875" height="2.69794" rx="1.34897" fill="#B2CE06"/>
<rect x="20.7178" y="78.9199" width="17.3438" height="2.69794" rx="1.34897" fill="#B2CE06"/>
<path d="M23.7358 44.5215H35.0435L36.3272 77.2052H22.4521L23.7358 44.5215Z" fill="#B2CE06"/>
<path d="M44.9341 44.5215H56.2417L57.5254 77.2052H43.6504L44.9341 44.5215Z" fill="#B2CE06"/>
<path d="M66.1323 44.5215H77.44L78.7237 77.2052H64.8486L66.1323 44.5215Z" fill="#B2CE06"/>
<rect x="43.6504" y="41.8237" width="13.875" height="2.69794" rx="1.34897" fill="#B2CE06"/>
<rect x="41.916" y="78.9199" width="17.3438" height="2.69794" rx="1.34897" fill="#B2CE06"/>
<rect x="64.8486" y="41.8237" width="13.875" height="2.69794" rx="1.34897" fill="#B2CE06"/>
<rect x="63.1143" y="78.9199" width="17.3438" height="2.69794" rx="1.34897" fill="#B2CE06"/>
<path d="M21.7383 33.4548C22.5083 31.8595 24.1234 30.8457 25.8948 30.8457H74.2528C75.9604 30.8457 77.5284 31.7885 78.3292 33.2967L81.7346 39.7103H18.7188L21.7383 33.4548Z" fill="#B2CE06"/>
<path d="M19.1045 39.7104H81.735V40.2853C81.735 41.135 81.0462 41.8237 80.1965 41.8237H20.643C19.7933 41.8237 19.1045 41.135 19.1045 40.2853V39.7104Z" fill="#B2CE06"/>
<path d="M81.7344 85.8447L19.1039 85.8447L19.1039 83.1565C19.1039 82.3069 19.7927 81.6181 20.6423 81.6181L80.1959 81.6181C81.0456 81.6181 81.7344 82.3069 81.7344 83.1565L81.7344 85.8447Z" fill="#B2CE06"/>
<path d="M85.3486 90.0718L15.4906 90.0718L15.4906 87.3836C15.4906 86.5339 16.1794 85.8451 17.029 85.8451L83.8102 85.8451C84.6598 85.8451 85.3486 86.5339 85.3486 87.3836L85.3486 90.0718Z" fill="#B2CE06"/>
<circle cx="50.5886" cy="33.9954" r="24.1101" fill="url(#paint0_linear_2146_12795)"/>
<circle cx="50.5882" cy="33.9949" r="2.97881" fill="url(#paint1_linear_2146_12795)"/>
<path d="M56.5846 44.3987C57.8437 41.6184 58.6067 37.9787 58.6067 33.995C58.6067 25.2631 54.9412 18.1846 50.4195 18.1846C45.8979 18.1846 42.2324 25.2631 42.2324 33.995C42.2324 42.7269 45.8979 49.8054 50.4195 49.8054C52.046 49.8054 53.5617 48.8895 54.8359 47.3102" stroke="url(#paint2_linear_2146_12795)" stroke-width="1.53846" stroke-linecap="round"/>
<path d="M60.3239 23.6211C62.0472 24.0004 63.3792 24.8199 64.1121 26.0893C66.3729 30.0051 62.0754 36.7188 54.5134 41.0847C46.9514 45.4507 38.9884 45.8155 36.7276 41.8997C34.4668 37.9839 38.7643 31.2702 46.3263 26.9042C49.8935 24.8447 53.55 23.6755 56.655 23.426" stroke="url(#paint3_linear_2146_12795)" stroke-width="1.53846" stroke-linecap="round"/>
<path d="M36.3446 30.1168C35.9655 28.6207 36.0655 27.2353 36.7271 26.0894C38.9879 22.1735 46.9508 22.5384 54.5128 26.9044C62.0749 31.2703 66.3723 37.984 64.1115 41.8998C61.8507 45.8157 53.8877 45.4508 46.3257 41.0849C42.7982 39.0482 39.981 36.5007 38.2086 33.9646" stroke="url(#paint4_linear_2146_12795)" stroke-width="1.53846" stroke-linecap="round"/>
<defs>
<linearGradient id="paint0_linear_2146_12795" x1="50.5886" y1="9.88526" x2="50.5886" y2="58.1055" gradientUnits="userSpaceOnUse">
<stop stop-color="white"/>
<stop offset="1" stop-color="white" stop-opacity="0.6"/>
</linearGradient>
<linearGradient id="paint1_linear_2146_12795" x1="52.598" y1="31.0161" x2="48.7583" y2="36.9737" gradientUnits="userSpaceOnUse">
<stop/>
<stop offset="1" stop-opacity="0"/>
</linearGradient>
<linearGradient id="paint2_linear_2146_12795" x1="55.3088" y1="48.5002" x2="41.5311" y2="15.4111" gradientUnits="userSpaceOnUse">
<stop/>
<stop offset="1" stop-opacity="0"/>
</linearGradient>
<linearGradient id="paint3_linear_2146_12795" x1="60.0523" y1="39.1263" x2="37.5788" y2="29.3012" gradientUnits="userSpaceOnUse">
<stop/>
<stop offset="1" stop-opacity="0"/>
</linearGradient>
<linearGradient id="paint4_linear_2146_12795" x1="37.3524" y1="24.2195" x2="79.363" y2="27.6074" gradientUnits="userSpaceOnUse">
<stop/>
<stop offset="1" stop-opacity="0"/>
</linearGradient>
</defs>
</svg>
