<svg width="700" height="142" viewBox="0 0 700 142" fill="none" xmlns="http://www.w3.org/2000/svg">
<path d="M0.709961 131.716C0.709961 136.962 4.96327 141.216 10.21 141.216L50.2555 141.216C52.3886 141.216 54.1179 139.486 54.1179 137.353C54.1179 134.668 56.2949 132.491 58.9803 132.491H138.313C140.999 132.491 143.176 134.668 143.176 137.353C143.176 139.486 144.905 141.216 147.038 141.216L689.739 141.216C694.986 141.216 699.239 136.962 699.239 131.716V62.9795C699.239 57.7328 694.986 53.4796 689.739 53.4796H655.68C649.881 53.4796 645.18 48.7785 645.18 42.9796V10.6179C645.18 5.3712 640.927 1.11792 635.68 1.11792L568.907 1.11794C567.023 1.11794 565.496 2.6451 565.496 4.52895C565.496 6.96507 563.521 8.93996 561.085 8.93996H412.095C409.659 8.93996 407.684 6.96507 407.684 4.52896C407.684 2.64513 406.157 1.11797 404.273 1.11797L10.21 1.11803C4.96327 1.11803 0.709965 5.37132 0.709965 10.618L0.709961 131.716Z" fill="#F6F6F6" stroke="#A5A5A4"/>
</svg>
