<svg width="37" height="30" viewBox="0 0 37 30" fill="none" xmlns="http://www.w3.org/2000/svg">
<path d="M0.779856 28.8771C0.297712 26.6271 0.0566406 23.7343 0.0566406 20.1985C0.0566406 16.6628 1.42271 12.8459 4.15486 8.74764C6.96736 4.64942 9.53879 1.87709 11.8692 0.430664C13.2352 0.993167 14.5209 1.91727 15.7263 3.20299C14.8424 5.85477 12.3513 9.55121 8.25308 14.2923C7.20843 15.4976 6.60575 16.1807 6.44504 16.3414C9.25754 16.3414 11.1861 16.4218 12.2308 16.5825C12.7129 18.1092 12.954 20.1985 12.954 22.8503C12.954 25.5021 12.8736 27.3905 12.7129 28.5155C10.945 28.9173 9.05665 29.1182 7.04772 29.1182C5.11914 29.1182 3.02986 29.0378 0.779856 28.8771ZM21.1504 28.8771C20.6683 26.6271 20.4272 23.7343 20.4272 20.1985C20.4272 16.6628 21.7933 12.8459 24.5254 8.74764C27.3379 4.64942 29.9093 1.87709 32.2397 0.430664C33.6058 0.993167 34.8915 1.91727 36.0969 3.20299C35.2129 5.85477 32.6817 9.55121 28.5031 14.2923C27.5388 15.4976 26.9763 16.1807 26.8156 16.3414C29.6281 16.3414 31.5567 16.4218 32.6013 16.5825C33.0835 18.1092 33.3245 20.1985 33.3245 22.8503C33.3245 25.5021 33.2442 27.3905 33.0835 28.5155C31.3156 28.9173 29.4272 29.1182 27.4183 29.1182C25.4897 29.1182 23.4004 29.0378 21.1504 28.8771Z" fill="#1D1D1B"/>
</svg>
