<svg width="37" height="37" viewBox="0 0 37 37" fill="none" xmlns="http://www.w3.org/2000/svg">
<g id="Group 4285883">
<g id="Group 4285884">
<circle id="Ellipse 59" cx="18.1191" cy="18.6182" r="18" fill="#D8F912"/>
<path id="!" d="M20.2611 8.01904L19.8855 21.8265H16.3615L15.9763 8.01904H20.2611ZM18.1235 27.9888C17.488 27.9888 16.9424 27.7641 16.4866 27.3148C16.0309 26.859 15.8062 26.3134 15.8126 25.6779C15.8062 25.0488 16.0309 24.5096 16.4866 24.0603C16.9424 23.611 17.488 23.3863 18.1235 23.3863C18.7333 23.3863 19.2693 23.611 19.7315 24.0603C20.1936 24.5096 20.4279 25.0488 20.4344 25.6779C20.4279 26.1016 20.3156 26.4899 20.0974 26.843C19.8855 27.1896 19.6063 27.4688 19.2597 27.6807C18.913 27.8861 18.5343 27.9888 18.1235 27.9888Z" fill="#1D1D1B"/>
</g>
</g>
</svg>
