<svg width="20" height="22" viewBox="0 0 20 22" fill="none" xmlns="http://www.w3.org/2000/svg">
<path d="M4.6347 9.39705H1.09766V19.2204H3.72019C4.71657 19.2204 5.70369 19.4115 6.62805 19.7835C7.2883 20.0492 7.99339 20.1857 8.70509 20.1857H13.469C15.3853 20.1857 17.0324 18.8266 17.3963 16.9452L18.6374 10.5276C18.8761 9.29355 17.9307 8.14784 16.6738 8.14784H11.716V3.01606C11.716 1.93026 10.8357 1.05005 9.74994 1.05005C9.60679 1.05005 9.4802 1.14298 9.43732 1.27957L8.57852 4.01497C8.06185 5.66067 7.27163 7.20756 6.24104 8.59072C5.86299 9.09811 5.26744 9.39705 4.6347 9.39705Z" fill="#D8F912" stroke="#1D1D1B" stroke-width="2" stroke-linejoin="round"/>
</svg>
