<svg width="58" height="71" viewBox="0 0 58 71" fill="none" xmlns="http://www.w3.org/2000/svg">
<path d="M57.8227 29.0892C57.8227 51.9476 28.9992 70.2656 28.9992 70.2656C28.9992 70.2656 0.175781 50.0319 0.175781 29.0892C0.175781 13.1704 13.0805 0.265625 28.9992 0.265625C44.918 0.265625 57.8227 13.1704 57.8227 29.0892Z" fill="#1D1D1B"/>
<path fill-rule="evenodd" clip-rule="evenodd" d="M23.6728 15.3674C19.0733 15.3674 15.3446 19.0873 15.3446 23.676V34.2998C15.3446 38.8885 19.0733 42.6084 23.6728 42.6084H34.3216C38.9212 42.6084 42.6499 38.8885 42.6499 34.2998V23.676C42.6499 19.0873 38.9212 15.3674 34.3216 15.3674H23.6728ZM18.0824 10.5654C13.9131 10.5654 10.5312 13.9393 10.5312 18.0988V39.8796C10.5312 44.0391 13.9131 47.413 18.0824 47.413H39.9146C44.084 47.413 47.4658 44.0391 47.4658 39.8796V10.5654H18.0824Z" fill="#D8F912"/>
</svg>
