<svg width="209" height="57" viewBox="0 0 209 57" fill="none" xmlns="http://www.w3.org/2000/svg">
<g clip-path="url(#clip0_1223_26439)">
<path fill-rule="evenodd" clip-rule="evenodd" d="M19.3894 8.56562C12.6878 8.56562 7.25522 14.0015 7.25522 20.7071V36.2318C7.25522 42.9374 12.6878 48.3733 19.3894 48.3733H34.9046C41.6062 48.3733 47.0388 42.9374 47.0388 36.2318V20.7071C47.0388 14.0015 41.6062 8.56562 34.9046 8.56562H19.3894ZM11.2442 1.54834C5.16954 1.54834 0.242188 6.47868 0.242188 12.557V44.3857C0.242188 50.464 5.16954 55.3944 11.2442 55.3944H43.0536C49.1283 55.3944 54.0556 50.464 54.0556 44.3857V1.54834H11.2442Z" fill="#DCDCDC"/>
<path d="M160.998 10.527C161.655 11.0858 162.537 11.3671 163.642 11.3671C164.748 11.3671 165.644 11.0858 166.294 10.527C166.951 9.96445 167.278 9.22699 167.278 8.32227H165.177C165.173 8.6986 165.052 9.03312 164.812 9.32202C164.581 9.61092 164.189 9.75537 163.642 9.75537C163.095 9.75537 162.689 9.61092 162.457 9.32202C162.229 9.02551 162.115 8.6948 162.115 8.32227H160.029C160.026 9.22699 160.348 9.96445 160.998 10.527Z" fill="#DCDCDC"/>
<path d="M71.6156 14.7273H76.2846V24.3447H78.9933V12.4199H68.9297V24.3447H71.6156V14.7273Z" fill="#DCDCDC"/>
<path d="M111.14 24.2119C111.589 24.44 112.159 24.554 112.839 24.554C113.773 24.554 114.613 24.3145 115.354 23.8317C116.094 23.349 116.679 22.6533 117.105 21.7372C117.534 20.8211 117.747 19.7073 117.747 18.3996C117.747 17.092 117.527 15.9554 117.086 15.0468C116.653 14.1307 116.06 13.4389 115.316 12.9751C114.575 12.5037 113.747 12.2681 112.827 12.2681C112.128 12.2681 111.555 12.3859 111.106 12.6254C110.658 12.8573 110.301 13.1386 110.035 13.4731C109.773 13.8 109.568 14.1079 109.423 14.3968H109.26V12.4239H106.498V28.8191H109.306V22.4709H109.423C109.571 22.7598 109.784 23.0677 110.05 23.3946C110.324 23.7139 110.685 23.9914 111.137 24.2157L111.14 24.2119ZM109.256 18.3806C109.256 17.609 109.363 16.9399 109.575 16.3697C109.792 15.7995 110.111 15.3586 110.529 15.043C110.947 14.7275 111.456 14.5679 112.056 14.5679C112.656 14.5679 113.203 14.7313 113.621 15.0583C114.039 15.3852 114.354 15.8337 114.567 16.4077C114.78 16.9817 114.886 17.6394 114.886 18.3806C114.886 19.1219 114.776 19.7909 114.56 20.3763C114.347 20.9541 114.032 21.4141 113.614 21.7486C113.196 22.0793 112.675 22.2466 112.056 22.2466C111.437 22.2466 110.954 22.0869 110.536 21.7638C110.122 21.4369 109.803 20.9845 109.583 20.4067C109.366 19.8289 109.256 19.1523 109.256 18.3806Z" fill="#DCDCDC"/>
<path d="M97.692 24.3447H100.408V14.7273H104.264V12.4199H93.8359V14.7273H97.692V24.3447Z" fill="#DCDCDC"/>
<path d="M90.8269 13.7087C90.3254 13.2183 89.7442 12.8534 89.0907 12.6215C88.4373 12.382 87.7459 12.2642 87.0127 12.2642C85.8768 12.2642 84.8852 12.5265 84.0418 13.0472C83.1984 13.5642 82.5412 14.2903 82.0701 15.2216C81.6028 16.1491 81.3711 17.2249 81.3711 18.4489C81.3711 19.673 81.6028 20.7792 82.0701 21.7029C82.5374 22.619 83.1984 23.3261 84.0646 23.8316C84.9346 24.3296 85.9641 24.5767 87.1608 24.5767C88.0878 24.5767 88.9084 24.4361 89.6264 24.1586C90.3444 23.8735 90.9333 23.4743 91.3968 22.9649C91.864 22.448 92.1794 21.8435 92.3427 21.1479L89.7214 20.8514C89.596 21.1859 89.4137 21.471 89.1705 21.6991C88.9274 21.9272 88.6387 22.0982 88.3081 22.2199C87.9776 22.3339 87.6091 22.3909 87.1988 22.3909C86.5872 22.3909 86.0553 22.2617 85.5994 22.0032C85.1435 21.7409 84.7902 21.3608 84.5357 20.8704C84.2926 20.3914 84.1672 19.8174 84.1596 19.156H92.4567V18.2931C92.4567 17.2477 92.3123 16.3468 92.0236 15.5903C91.7349 14.8301 91.336 14.2028 90.8307 13.7125L90.8269 13.7087ZM84.1672 17.2553C84.1938 16.7878 84.3078 16.3544 84.5205 15.9591C84.7636 15.5105 85.1018 15.1456 85.5386 14.8719C85.9717 14.5906 86.477 14.4537 87.0507 14.4537C87.5901 14.4537 88.0574 14.5754 88.4639 14.8187C88.8742 15.0619 89.1895 15.3965 89.4175 15.8184C89.6454 16.2366 89.7632 16.7155 89.767 17.2553H84.171H84.1672Z" fill="#DCDCDC"/>
<path d="M142.088 18.5822C141.617 18.3199 141.07 18.1602 140.443 18.107C141.241 17.9626 141.868 17.6813 142.327 17.2593C142.795 16.8336 143.026 16.29 143.026 15.6209C143.026 14.6136 142.616 13.8267 141.792 13.2603C140.975 12.6977 139.862 12.4126 138.449 12.4126H133.445V24.3374H139.216C140.147 24.3374 140.937 24.2044 141.59 23.9421C142.248 23.6722 142.745 23.2996 143.087 22.8169C143.433 22.3303 143.608 21.7601 143.608 21.1025C143.608 20.5437 143.475 20.0495 143.205 19.6199C142.935 19.1904 142.563 18.8445 142.088 18.5784V18.5822ZM136.074 14.6706H138.449C139.038 14.6706 139.497 14.7884 139.828 15.0203C140.162 15.2522 140.333 15.5753 140.333 15.9821C140.333 16.2672 140.261 16.5142 140.116 16.7195C139.972 16.921 139.763 17.0806 139.49 17.1947C139.216 17.3049 138.886 17.3581 138.506 17.3581H136.078V14.6706H136.074ZM140.436 21.7639C140.139 22.0072 139.737 22.1288 139.216 22.1288H136.074V19.1714H139.216C139.733 19.1714 140.139 19.312 140.436 19.5971C140.732 19.8784 140.876 20.2624 140.876 20.7527C140.876 21.1785 140.728 21.513 140.436 21.7601V21.7639Z" fill="#DCDCDC"/>
<path d="M161.177 20.5396V12.4199H158.469V24.3447H161.364L166.116 16.2175V24.3447H168.833V12.4199H165.945L161.177 20.5396Z" fill="#DCDCDC"/>
<path d="M154.077 13.1347C153.605 12.823 153.085 12.6025 152.519 12.4656C151.953 12.3288 151.379 12.2642 150.806 12.2642C149.974 12.2642 149.214 12.3896 148.526 12.6367C147.839 12.88 147.257 13.2487 146.782 13.7391C146.308 14.2257 145.966 14.8301 145.757 15.5561L148.378 15.9287C148.519 15.5181 148.788 15.1646 149.183 14.8643C149.586 14.564 150.133 14.4157 150.821 14.4157C151.474 14.4157 151.972 14.5754 152.318 14.8985C152.663 15.2178 152.838 15.674 152.838 16.2556V16.3012C152.838 16.5711 152.735 16.7688 152.534 16.898C152.337 17.0234 152.021 17.1147 151.588 17.1793C151.155 17.2363 150.589 17.3009 149.89 17.3732C149.313 17.434 148.75 17.5366 148.207 17.6773C147.668 17.8103 147.185 18.0118 146.756 18.2741C146.326 18.5364 145.988 18.8899 145.741 19.3309C145.495 19.7718 145.369 20.3268 145.369 20.9996C145.369 21.7827 145.544 22.4366 145.89 22.9725C146.243 23.5047 146.718 23.9077 147.318 24.1852C147.922 24.4551 148.602 24.5881 149.358 24.5881C149.977 24.5881 150.521 24.5045 150.98 24.3334C151.448 24.1586 151.831 23.9267 152.135 23.6416C152.447 23.3527 152.686 23.041 152.857 22.7102H152.952V24.3486H155.653V16.3696C155.653 15.5789 155.509 14.9175 155.22 14.3891C154.935 13.8607 154.559 13.4464 154.088 13.1385L154.077 13.1347ZM152.842 20.0683C152.842 20.5093 152.728 20.916 152.5 21.2885C152.276 21.6611 151.96 21.9614 151.546 22.1895C151.132 22.4137 150.642 22.524 150.08 22.524C149.518 22.524 149.016 22.3909 148.636 22.1286C148.26 21.8664 148.07 21.4748 148.07 20.9578C148.07 20.5967 148.165 20.3002 148.359 20.0721C148.549 19.8402 148.811 19.6578 149.142 19.5285C149.472 19.3993 149.848 19.3042 150.266 19.2472C150.452 19.2206 150.673 19.1902 150.927 19.1522C151.182 19.1142 151.436 19.0762 151.695 19.0267C151.953 18.9811 152.185 18.9241 152.394 18.8633C152.606 18.8025 152.754 18.734 152.842 18.6618V20.0683Z" fill="#DCDCDC"/>
<path d="M179.538 18.6467C179.162 18.4034 178.737 18.2704 178.266 18.2438V18.1183C178.95 17.9359 179.493 17.6356 179.895 17.2174C180.298 16.7917 180.5 16.2557 180.5 15.6094C180.5 14.9632 180.317 14.3512 179.949 13.857C179.58 13.3553 179.06 12.9637 178.383 12.6862C177.707 12.4049 176.902 12.2681 175.971 12.2681C175.101 12.2681 174.322 12.4087 173.627 12.6938C172.939 12.9789 172.392 13.3781 171.982 13.8874C171.579 14.4006 171.37 15.0012 171.363 15.6969H174.132C174.148 15.2977 174.337 14.9708 174.706 14.7199C175.078 14.4652 175.546 14.3398 176.104 14.3398C176.663 14.3398 177.099 14.4766 177.415 14.7503C177.734 15.024 177.897 15.3814 177.897 15.8223C177.897 16.2329 177.745 16.5712 177.441 16.8411C177.141 17.111 176.7 17.244 176.115 17.244H174.292V19.2397H176.115C176.507 19.2397 176.849 19.3082 177.141 19.4412C177.434 19.5742 177.654 19.7681 177.817 20.0152C177.977 20.2585 178.057 20.5398 178.057 20.8629C178.057 21.4065 177.848 21.8132 177.43 22.0831C177.016 22.3454 176.507 22.4785 175.903 22.4785C175.299 22.4785 174.824 22.3568 174.451 22.1135C174.079 21.8703 173.882 21.5243 173.855 21.0796H171.07C171.097 21.8132 171.321 22.4443 171.747 22.965C172.172 23.4858 172.742 23.8888 173.46 24.1701C174.186 24.4438 175.002 24.5806 175.918 24.5806C176.833 24.5806 177.696 24.44 178.425 24.1549C179.158 23.8698 179.736 23.463 180.154 22.9346C180.572 22.4024 180.781 21.7714 180.781 21.0416C180.781 20.5018 180.67 20.0304 180.446 19.6199C180.222 19.2093 179.926 18.8862 179.546 18.6505L179.538 18.6467Z" fill="#DCDCDC"/>
<path d="M191.927 13.7087C191.425 13.2183 190.844 12.8534 190.19 12.6215C189.537 12.382 188.845 12.2642 188.112 12.2642C186.976 12.2642 185.985 12.5265 185.141 13.0472C184.298 13.5642 183.641 14.2903 183.17 15.2216C182.702 16.1491 182.471 17.2249 182.471 18.4489C182.471 19.673 182.702 20.7792 183.17 21.7029C183.637 22.619 184.298 23.3261 185.164 23.8316C186.034 24.3296 187.064 24.5767 188.26 24.5767C189.187 24.5767 190.008 24.4361 190.726 24.1586C191.444 23.8735 192.033 23.4743 192.496 22.9649C192.964 22.448 193.279 21.8435 193.442 21.1479L190.821 20.8514C190.696 21.1859 190.513 21.471 190.27 21.6991C190.027 21.9272 189.738 22.0982 189.408 22.2199C189.077 22.3339 188.709 22.3909 188.298 22.3909C187.687 22.3909 187.155 22.2617 186.699 22.0032C186.243 21.7409 185.89 21.3608 185.635 20.8704C185.392 20.3914 185.267 19.8174 185.259 19.156H193.556V18.2931C193.556 17.2477 193.412 16.3468 193.123 15.5903C192.834 14.8301 192.436 14.2028 191.93 13.7125L191.927 13.7087ZM185.267 17.2553C185.293 16.7878 185.407 16.3544 185.62 15.9591C185.863 15.5105 186.201 15.1456 186.638 14.8719C187.071 14.5906 187.577 14.4537 188.15 14.4537C188.69 14.4537 189.157 14.5754 189.564 14.8187C189.974 15.0619 190.289 15.3965 190.517 15.8184C190.745 16.2366 190.863 16.7155 190.867 17.2553H185.271H185.267Z" fill="#DCDCDC"/>
<path d="M206.52 15.0429C206.086 14.1268 205.494 13.435 204.749 12.9712C204.008 12.4998 203.18 12.2642 202.261 12.2642C201.562 12.2642 200.988 12.382 200.54 12.6215C200.092 12.8534 199.734 13.1347 199.469 13.4692C199.206 13.7961 199.001 14.104 198.857 14.3929H198.694V12.42H195.932V28.8152H198.739V22.467H198.857C199.005 22.7559 199.218 23.0638 199.484 23.3907C199.757 23.71 200.118 23.9875 200.57 24.2118C201.019 24.4399 201.588 24.5539 202.268 24.5539C203.203 24.5539 204.043 24.3144 204.783 23.8316C205.524 23.3489 206.109 22.6532 206.535 21.7371C206.964 20.821 207.177 19.7072 207.177 18.3995C207.177 17.0919 206.956 15.9553 206.516 15.0467L206.52 15.0429ZM203.989 20.3762C203.777 20.954 203.461 21.414 203.043 21.7485C202.626 22.0792 202.105 22.2465 201.486 22.2465C200.867 22.2465 200.384 22.0868 199.966 21.7637C199.552 21.4368 199.233 20.9844 199.013 20.4066C198.796 19.8288 198.686 19.1522 198.686 18.3805C198.686 17.6088 198.792 16.9398 199.005 16.3696C199.222 15.7994 199.541 15.3585 199.959 15.0429C200.377 14.7274 200.886 14.5678 201.486 14.5678C202.086 14.5678 202.633 14.7312 203.051 15.0581C203.469 15.3851 203.784 15.8336 203.997 16.4076C204.21 16.9816 204.316 17.6393 204.316 18.3805C204.316 19.1218 204.206 19.7908 203.989 20.3762Z" fill="#DCDCDC"/>
<path d="M128.377 23.8088C129.231 23.2957 129.889 22.581 130.356 21.6573C130.827 20.7374 131.062 19.6616 131.062 18.4299C131.062 17.1983 130.827 16.1187 130.356 15.1912C129.889 14.2637 129.231 13.5452 128.377 13.032C127.522 12.5188 126.515 12.2642 125.353 12.2642C124.19 12.2642 123.179 12.5188 122.328 13.032C121.478 13.5452 120.813 14.2637 120.342 15.1912C119.874 16.1187 119.643 17.1983 119.643 18.4299C119.643 19.6616 119.874 20.7374 120.342 21.6573C120.813 22.5772 121.474 23.2957 122.328 23.8088C123.183 24.322 124.19 24.5767 125.353 24.5767C126.515 24.5767 127.526 24.322 128.377 23.8088ZM122.8 20.3952C122.594 19.806 122.488 19.1484 122.488 18.4223C122.488 17.6963 122.591 17.031 122.8 16.4418C123.012 15.845 123.331 15.3737 123.753 15.0201C124.182 14.6666 124.722 14.4917 125.368 14.4917C126.014 14.4917 126.526 14.6666 126.952 15.0201C127.377 15.3737 127.693 15.845 127.898 16.4418C128.111 17.031 128.217 17.6925 128.217 18.4223C128.217 19.1522 128.111 19.8022 127.898 20.3952C127.693 20.9844 127.374 21.4558 126.952 21.8093C126.526 22.1553 126.002 22.3301 125.368 22.3301C124.733 22.3301 124.182 22.1553 123.753 21.8093C123.328 21.4558 123.012 20.9882 122.8 20.3952Z" fill="#DCDCDC"/>
<path d="M107.319 34.0076C106.798 33.4602 106.171 33.0383 105.45 32.7418C104.724 32.4453 103.926 32.3008 103.052 32.3008V28.4805H100.237V32.3008C99.3635 32.3008 98.5657 32.4491 97.8401 32.7418C97.1145 33.0383 96.4914 33.4602 95.9633 34.0076C95.4429 34.5512 95.0364 35.2012 94.7439 35.9577C94.4589 36.7142 94.3184 37.5505 94.3184 38.4666C94.3184 39.3827 94.4589 40.219 94.7439 40.9755C95.0326 41.7243 95.4391 42.3744 95.9633 42.918C96.4914 43.4616 97.1182 43.8797 97.8401 44.1762C98.5657 44.4727 99.3635 44.6172 100.237 44.6172V48.4375H103.052V44.6172C103.926 44.6172 104.724 44.4689 105.45 44.1762C106.175 43.8797 106.798 43.4616 107.319 42.918C107.847 42.3744 108.253 41.7281 108.538 40.9755C108.827 40.219 108.971 39.3827 108.971 38.4666C108.971 37.5505 108.827 36.7142 108.538 35.9577C108.253 35.2012 107.847 34.5512 107.319 34.0076ZM98.5619 41.8156C98.1136 41.4621 97.7717 40.9945 97.5361 40.4091C97.3044 39.8199 97.1866 39.1698 97.1866 38.459C97.1866 37.9268 97.2512 37.425 97.3804 36.9613C97.5134 36.4899 97.7071 36.0756 97.9616 35.7182C98.22 35.3571 98.5391 35.0758 98.9152 34.8705C99.2989 34.6653 99.7358 34.5588 100.233 34.5588V42.3364C99.5724 42.3364 99.014 42.1615 98.5581 41.808L98.5619 41.8156ZM105.902 39.9681C105.772 40.4357 105.579 40.8462 105.32 41.2036C105.066 41.5609 104.751 41.8384 104.374 42.0437C103.998 42.2489 103.558 42.3478 103.056 42.3478V34.5702C103.725 34.5702 104.283 34.7489 104.732 35.1062C105.187 35.4597 105.529 35.9273 105.757 36.5203C105.985 37.1095 106.099 37.7595 106.099 38.4704C106.099 39.0026 106.035 39.5044 105.905 39.9757L105.902 39.9681Z" fill="#DCDCDC"/>
<path d="M72.6407 35.0339C73.0737 34.7222 73.579 34.5664 74.1527 34.5664C74.8289 34.5664 75.3722 34.7602 75.7749 35.148C76.1852 35.5319 76.4435 36.0109 76.5499 36.5849H79.2358C79.175 35.7258 78.9205 34.9769 78.476 34.3345C78.0315 33.6883 77.435 33.1865 76.6828 32.8368C75.9382 32.4794 75.0834 32.3008 74.1147 32.3008C72.9522 32.3008 71.9416 32.5631 71.0906 33.0839C70.2435 33.6008 69.5862 34.3269 69.1189 35.2582C68.6517 36.1858 68.4199 37.2539 68.4199 38.4628C68.4199 39.6716 68.6479 40.736 69.1037 41.6597C69.5634 42.5796 70.2169 43.3019 71.0678 43.8265C71.9226 44.3472 72.9408 44.6095 74.1337 44.6095C75.1328 44.6095 75.999 44.4271 76.7398 44.0659C77.4806 43.6972 78.0657 43.1916 78.4912 42.5454C78.9205 41.8916 79.1674 41.1465 79.2358 40.3026H76.5499C76.4663 40.7322 76.3143 41.0971 76.094 41.3974C75.8698 41.6977 75.5963 41.9296 75.2658 42.0892C74.9391 42.2451 74.5706 42.3211 74.1565 42.3211C73.5714 42.3211 73.0623 42.1653 72.6293 41.8536C72.2 41.538 71.8657 41.0895 71.6301 40.5117C71.3908 39.9263 71.273 39.2268 71.273 38.4171C71.273 37.6075 71.3908 36.927 71.6301 36.353C71.8733 35.779 72.2114 35.3381 72.6483 35.0339H72.6407Z" fill="#DCDCDC"/>
<path d="M89.7633 33.0687C88.9085 32.5555 87.9018 32.3008 86.7393 32.3008C85.5767 32.3008 84.5662 32.5555 83.7152 33.0687C82.8642 33.5818 82.1994 34.3003 81.7283 35.2278C81.261 36.1553 81.0293 37.2349 81.0293 38.4666C81.0293 39.6982 81.261 40.774 81.7283 41.6939C82.1994 42.6138 82.8604 43.3323 83.7152 43.8455C84.57 44.3586 85.5767 44.6133 86.7393 44.6133C87.9018 44.6133 88.9123 44.3586 89.7633 43.8455C90.6143 43.3323 91.2753 42.6176 91.7426 41.6939C92.2137 40.774 92.4492 39.6982 92.4492 38.4666C92.4492 37.2349 92.2137 36.1553 91.7426 35.2278C91.2753 34.3003 90.6181 33.5818 89.7633 33.0687ZM89.2808 40.4281C89.0757 41.0173 88.7566 41.4886 88.3349 41.8422C87.9094 42.1881 87.3851 42.3629 86.7507 42.3629C86.1162 42.3629 85.5654 42.1881 85.1361 41.8422C84.7106 41.4886 84.3952 41.0211 84.1825 40.4281C83.9774 39.8388 83.871 39.1812 83.871 38.4552C83.871 37.7291 83.9736 37.0639 84.1825 36.4747C84.3952 35.8778 84.7144 35.4065 85.1361 35.053C85.5654 34.6994 86.1048 34.5246 86.7507 34.5246C87.3965 34.5246 87.9094 34.6994 88.3349 35.053C88.7604 35.4065 89.0757 35.8778 89.2808 36.4747C89.4936 37.0639 89.5999 37.7253 89.5999 38.4552C89.5999 39.185 89.4936 39.835 89.2808 40.4281Z" fill="#DCDCDC"/>
<path d="M110.031 34.7606H113.883V44.378H116.6V34.7606H120.456V32.457H110.031V34.7606Z" fill="#DCDCDC"/>
<path d="M129.196 36.8744C129.189 36.7451 129.185 36.6273 129.185 36.5132V36.1597C129.185 35.9164 129.097 35.6655 128.919 35.407C128.744 35.1523 128.463 34.9927 128.083 34.9319C128.383 34.8825 128.619 34.8064 128.786 34.6962C129.101 34.4909 129.261 34.1716 129.261 33.7421C129.261 33.1338 129.01 32.7233 128.509 32.5142C128.227 32.3964 127.787 32.3394 127.187 32.3394H125.492V37.1823H126.347V35.2702H127.019C127.471 35.2702 127.787 35.3234 127.969 35.426C128.273 35.6047 128.425 35.9772 128.425 36.5398V36.9238L128.444 37.0796C128.448 37.0986 128.452 37.1176 128.455 37.1328C128.459 37.1481 128.463 37.1633 128.467 37.1823H129.265L129.234 37.1214C129.215 37.0796 129.2 36.996 129.192 36.8706L129.196 36.8744ZM127.927 34.5707C127.749 34.643 127.475 34.6772 127.118 34.6772H126.351V32.921H127.076C127.547 32.921 127.893 32.9818 128.102 33.0996C128.319 33.2213 128.425 33.457 128.425 33.8105C128.425 34.183 128.258 34.4339 127.927 34.5669V34.5707Z" fill="#DCDCDC"/>
<path d="M127.274 30.3735C126.063 30.3735 125.025 30.8031 124.171 31.6584C123.316 32.5137 122.879 33.5591 122.879 34.7717C122.879 35.9843 123.304 37.0411 124.159 37.904C125.018 38.7707 126.055 39.2041 127.278 39.2041C128.501 39.2041 129.542 38.7707 130.401 37.904C131.26 37.0373 131.693 35.9957 131.693 34.7717C131.693 33.5477 131.263 32.5175 130.401 31.6584C129.539 30.7993 128.498 30.3735 127.278 30.3735H127.274ZM129.96 37.4782C129.223 38.2233 128.327 38.5958 127.274 38.5958C126.222 38.5958 125.325 38.2233 124.588 37.4782C123.855 36.7332 123.491 35.8323 123.491 34.7755C123.491 33.7187 123.859 32.8292 124.596 32.0879C125.337 31.3429 126.23 30.9703 127.274 30.9703C128.319 30.9703 129.22 31.3429 129.96 32.0879C130.697 32.8292 131.066 33.7263 131.066 34.7755C131.066 35.8247 130.697 36.7332 129.96 37.4782Z" fill="#DCDCDC"/>
</g>
<defs>
<clipPath id="clip0_1223_26439">
<rect width="206.938" height="53.846" fill="white" transform="translate(0.242188 1.54834)"/>
</clipPath>
</defs>
</svg>
