<svg width="62" height="62" viewBox="0 0 62 62" fill="none" xmlns="http://www.w3.org/2000/svg">
<g filter="url(#filter0_b_1603_27804)">
<rect x="0.617676" y="60.9697" width="59.9958" height="60" rx="15" transform="rotate(-90 0.617676 60.9697)" fill="black" fill-opacity="0.03"/>
</g>
<path d="M9.44629 38.2515V17.255C9.44629 13.9228 12.1476 11.2214 15.4799 11.2214C17.379 11.2214 19.1673 12.1156 20.3067 13.6349L20.4967 13.8881C21.6794 15.465 23.5355 16.3931 25.5066 16.3931H45.5267C48.9853 16.3931 51.7891 19.1969 51.7891 22.6555V38.2515C51.7891 41.7101 48.9853 44.5139 45.5267 44.5139H15.7087C12.2501 44.5139 9.44629 41.7101 9.44629 38.2515Z" fill="url(#paint0_linear_1603_27804)"/>
<rect x="17.5271" y="26.1917" width="26.1814" height="26.5307" rx="6.2624" fill="url(#paint1_linear_1603_27804)"/>
<rect x="18.583" y="37.6233" width="24.0694" height="3.66752" rx="1.83376" fill="#D8F912"/>
<path d="M20.7593 32.9234V32.9234C20.7593 30.9744 22.3392 29.3945 24.2881 29.3945H24.4594" stroke="white" stroke-width="0.894629" stroke-linecap="round" stroke-linejoin="round"/>
<path d="M36.9475 29.467V29.467C38.8964 29.467 40.4763 31.047 40.4763 32.9959L40.4763 33.1672" stroke="white" stroke-width="0.894629" stroke-linecap="round" stroke-linejoin="round"/>
<path d="M40.4766 45.9182V45.9182C40.4766 47.8671 38.8967 49.447 36.9477 49.447L36.7764 49.447" stroke="white" stroke-width="0.894629" stroke-linecap="round" stroke-linejoin="round"/>
<path d="M24.2881 49.3745V49.3745C22.3392 49.3745 20.7593 47.7946 20.7593 45.8457L20.7593 45.6744" stroke="white" stroke-width="0.894629" stroke-linecap="round" stroke-linejoin="round"/>
<defs>
<filter id="filter0_b_1603_27804" x="-7.96524" y="-7.60904" width="77.1658" height="77.1617" filterUnits="userSpaceOnUse" color-interpolation-filters="sRGB">
<feFlood flood-opacity="0" result="BackgroundImageFix"/>
<feGaussianBlur in="BackgroundImageFix" stdDeviation="4.29146"/>
<feComposite in2="SourceAlpha" operator="in" result="effect1_backgroundBlur_1603_27804"/>
<feBlend mode="normal" in="SourceGraphic" in2="effect1_backgroundBlur_1603_27804" result="shape"/>
</filter>
<linearGradient id="paint0_linear_1603_27804" x1="30.6177" y1="11.2214" x2="30.6177" y2="52.8418" gradientUnits="userSpaceOnUse">
<stop stop-color="white"/>
<stop offset="1" stop-color="white" stop-opacity="0"/>
</linearGradient>
<linearGradient id="paint1_linear_1603_27804" x1="12.066" y1="9.36149" x2="33.5377" y2="57.6727" gradientUnits="userSpaceOnUse">
<stop stop-color="#1D1D1B" stop-opacity="0.39"/>
<stop offset="1" stop-color="#1D1D1B" stop-opacity="0.04"/>
</linearGradient>
</defs>
</svg>
