<svg width="77" height="75" viewBox="0 0 77 75" fill="none" xmlns="http://www.w3.org/2000/svg">
<g filter="url(#filter0_b_1603_27803)">
<rect x="0.249023" width="75" height="75" rx="18" fill="black" fill-opacity="0.03"/>
</g>
<ellipse cx="21.0764" cy="23.6319" rx="21.0764" ry="23.6319" transform="matrix(0.820695 -0.421121 -0.425224 -0.751983 30.8137 64.1465)" fill="url(#paint0_linear_1603_27803)"/>
<path d="M51.0076 59.1985C50.9607 59.5633 50.8214 59.9548 50.4667 60.1431C50.0253 60.3774 49.5099 60.1667 49.117 59.9196C48.6999 59.6571 48.2387 59.2422 47.7554 58.7348C46.7822 57.7131 45.3669 56.1009 44.09 54.2721C41.5022 50.5658 38.2455 45.5704 35.0602 39.6554C31.875 33.7405 29.3308 28.1477 27.6637 23.9527C26.8411 21.8828 26.4458 19.9484 26.1306 18.5775C25.9741 17.8966 25.8827 17.2854 25.8946 16.7953C25.9057 16.3337 26.0156 15.7912 26.457 15.5569C26.7633 15.3943 27.1098 15.4494 27.4075 15.5712C27.7025 15.6919 28.007 15.8996 28.3068 16.148C28.7888 16.5474 29.3362 17.1175 29.9271 17.8126C29.3881 18.0258 28.8113 18.2425 28.8113 18.2425C28.8113 18.2425 28.0216 17.4021 27.7103 17.1443C27.4666 16.9423 27.2884 16.8333 27.1704 16.785C27.1426 16.7736 27.1217 16.767 27.1065 16.7631C27.0925 16.8008 27.0722 16.8825 27.0683 17.0449C27.0607 17.3585 27.1211 17.8285 27.2663 18.4603C27.5547 19.7148 28.1392 21.4465 28.9508 23.4888C30.588 27.6088 33.185 33.0939 36.3498 38.971C39.5146 44.848 42.6665 50.0387 45.2081 53.6787C46.4679 55.483 47.5938 56.9274 48.4844 57.8623C48.9329 58.3332 49.293 58.644 49.5599 58.812C49.6982 58.899 49.7779 58.9276 49.8173 58.9369C49.8257 58.9135 49.8362 58.8739 49.8444 58.8101C49.868 58.6266 49.8581 58.3357 49.7917 57.9189C49.7018 57.3543 49.5209 56.6335 49.2565 55.7797L50.2303 55.1348C50.5779 56.2078 50.8271 57.1494 50.9474 57.9046C51.0237 58.3839 51.0551 58.8291 51.0076 59.1985Z" fill="url(#paint1_linear_1603_27803)"/>
<path d="M19.4166 48.9115C18.2736 46.8272 19.4469 44.1932 22.2416 40.7837C25.0046 37.4129 29.6245 34.1817 35.1951 31.3303C40.7657 28.4789 46.0529 26.7479 50.4914 26.4325C54.981 26.1135 57.9512 26.5177 59.0942 28.602C59.8521 29.984 59.7144 31.7973 58.7209 33.8563L59.0787 35.7153C60.8366 32.9101 61.4326 30.1709 60.2483 28.0113C58.7678 25.3117 54.9496 24.3271 50.3308 24.6553C45.661 24.9872 39.9306 26.6653 34.2259 29.5853C28.5211 32.5054 23.8655 36.1435 20.9586 39.6899C18.0834 43.1975 16.7821 46.8026 18.2625 49.5022C19.2868 51.37 21.4303 52.4168 24.1838 52.7758L22.925 51.3116C21.2386 50.8545 20.0361 50.0412 19.4166 48.9115Z" fill="url(#paint2_linear_1603_27803)"/>
<path d="M32.8737 59.1334C30.1129 58.4768 28.6494 55.7314 27.8007 51.4512C26.9617 47.2196 27.6518 41.9513 29.4844 36.1492C31.3169 30.3471 33.8849 25.4057 37.0931 22.1367C40.338 18.83 43.1655 17.1506 45.9264 17.8072C47.757 18.2426 49.2688 19.592 50.3271 21.6996L52.2694 22.7401C51.1453 19.5907 49.1667 17.2856 46.306 16.6052C42.7301 15.7547 38.8483 17.698 35.5099 21.0998C32.1346 24.5392 29.1282 29.6392 27.2515 35.581C25.3749 41.5228 24.9646 47.2403 25.8474 51.6924C26.7205 56.0958 28.9182 59.485 32.4941 60.3354C34.9682 60.9238 37.5888 60.1749 40.0746 58.5307L37.7767 58.3827C36.0423 59.2255 34.3702 59.4893 32.8737 59.1334Z" fill="url(#paint3_linear_1603_27803)"/>
<path d="M15.8567 34.449C16.2459 33.194 18.9822 33.1838 23.4313 33.2804C27.8299 33.3758 33.6908 34.2238 40.0544 35.7946C46.418 37.3654 51.701 39.2295 55.5291 41.1647C59.4011 43.1222 61.5718 44.3823 61.1826 45.6373C60.9246 46.4695 59.6608 47.0397 57.5413 47.3013L56.6534 48.1157C59.8714 47.9456 62.0978 47.2632 62.501 45.9628C63.0051 44.3372 60.5093 42.2336 56.5258 40.2198C52.4982 38.1838 46.749 36.1293 40.2321 34.5207C33.7153 32.9121 27.6 32.0378 22.9723 31.9374C18.3951 31.838 15.0424 32.498 14.5383 34.1235C14.1896 35.2482 15.2769 36.6018 17.2995 37.9961L17.2004 36.9045C16.1122 35.9675 15.6457 35.1292 15.8567 34.449Z" fill="url(#paint4_linear_1603_27803)"/>
<defs>
<filter id="filter0_b_1603_27803" x="-8.33389" y="-8.58291" width="92.1658" height="92.1658" filterUnits="userSpaceOnUse" color-interpolation-filters="sRGB">
<feFlood flood-opacity="0" result="BackgroundImageFix"/>
<feGaussianBlur in="BackgroundImageFix" stdDeviation="4.29146"/>
<feComposite in2="SourceAlpha" operator="in" result="effect1_backgroundBlur_1603_27803"/>
<feBlend mode="normal" in="SourceGraphic" in2="effect1_backgroundBlur_1603_27803" result="shape"/>
</filter>
<linearGradient id="paint0_linear_1603_27803" x1="89.5236" y1="37.6893" x2="-1.79864" y2="1.18792" gradientUnits="userSpaceOnUse">
<stop stop-color="#1D1D1B" stop-opacity="0.38"/>
<stop offset="1" stop-color="#1D1D1B" stop-opacity="0"/>
</linearGradient>
<linearGradient id="paint1_linear_1603_27803" x1="49.7227" y1="60.538" x2="22.2057" y2="6.25172" gradientUnits="userSpaceOnUse">
<stop stop-color="#D8F912"/>
<stop offset="0.5" stop-color="#D8F912"/>
<stop offset="1" stop-color="#D8F912" stop-opacity="0"/>
</linearGradient>
<linearGradient id="paint2_linear_1603_27803" x1="68.3212" y1="22.9503" x2="2.63572" y2="62.3452" gradientUnits="userSpaceOnUse">
<stop stop-color="white" stop-opacity="0.52"/>
<stop offset="0.484375" stop-color="white"/>
<stop offset="1" stop-color="white" stop-opacity="0.49"/>
</linearGradient>
<linearGradient id="paint3_linear_1603_27803" x1="43.9063" y1="16.0345" x2="32.3435" y2="65.0709" gradientUnits="userSpaceOnUse">
<stop stop-color="#D8F912"/>
<stop offset="0.46875" stop-color="#D8F912" stop-opacity="0.84"/>
<stop offset="1" stop-color="#D8F912" stop-opacity="0.59"/>
</linearGradient>
<linearGradient id="paint4_linear_1603_27803" x1="13.0422" y1="25.6627" x2="75.0891" y2="61.1675" gradientUnits="userSpaceOnUse">
<stop stop-color="white"/>
<stop offset="0.473958" stop-color="white" stop-opacity="0.800937"/>
<stop offset="1" stop-color="white" stop-opacity="0.58"/>
</linearGradient>
</defs>
</svg>
